<svg version="1.1" id="Layer_1" xmlns="http://www.w3.org/2000/svg" xmlns:xlink="http://www.w3.org/1999/xlink" x="0px" y="0px"
	 width="100%" viewBox="0 0 706 490" enable-background="new 0 0 706 490" xml:space="preserve">
<path fill="#562002" opacity="1.000000" stroke="none" 
	d="
M448.000000,491.000000 
	C298.666656,491.000000 149.833328,491.000000 1.000000,491.000000 
	C1.000000,327.666656 1.000000,164.333328 1.000000,1.000000 
	C236.333328,1.000000 471.666656,1.000000 707.000000,1.000000 
	C707.000000,164.333328 707.000000,327.666656 707.000000,491.000000 
	C620.833313,491.000000 534.666687,491.000000 448.000000,491.000000 
M404.217621,162.818680 
	C404.217621,162.818680 404.141541,162.690002 403.977142,162.213455 
	C403.301208,162.236206 402.625305,162.258957 401.105316,162.398849 
	C360.082550,162.423706 319.059814,162.451630 278.037048,162.459656 
	C276.718567,162.459915 275.400055,162.256546 273.968536,161.886414 
	C273.617432,161.968582 273.266296,162.050735 272.042053,162.354050 
	C270.584259,162.549835 269.126434,162.745621 267.668640,162.941391 
	C267.649750,163.426620 267.630859,163.911850 267.611969,164.397079 
	C269.374176,164.669144 271.136353,164.941208 273.322845,165.838486 
	C274.904480,166.160431 276.485748,166.761429 278.067810,166.763504 
	C317.438568,166.815369 356.809418,166.822861 396.180054,166.737488 
	C397.822845,166.733932 399.463562,165.758499 401.815216,165.146179 
	C402.528168,165.086441 403.241150,165.026688 404.486389,164.947571 
	C404.446472,164.241852 404.406555,163.536133 404.217621,162.818680 
M403.587738,154.794495 
	C403.408997,154.724228 403.230225,154.653976 403.006866,153.854095 
	C403.015991,152.638580 403.025146,151.423050 403.589569,149.901245 
	C404.136017,149.280624 404.682434,148.660004 405.875641,147.657532 
	C406.164520,147.074371 406.696442,146.494781 406.705109,145.907486 
	C406.805634,139.099335 406.827057,132.290039 406.869568,125.481033 
	C407.030304,99.741913 407.281128,74.002693 407.252319,48.263786 
	C407.248108,44.507561 405.909729,40.752827 404.971802,36.541245 
	C404.950806,36.374195 404.929810,36.207142 404.781982,35.312607 
	C402.865601,34.586857 400.951508,33.235252 399.032501,33.228230 
	C364.258331,33.100922 329.483521,33.111248 294.709198,33.214405 
	C293.130707,33.219090 291.555634,34.373821 289.249176,35.162922 
	C288.506653,35.107048 287.764130,35.051170 286.855896,34.459908 
	C285.565277,34.639343 284.274628,34.818783 282.169220,35.168301 
	C280.788727,35.109509 279.408234,35.050716 277.843597,34.436295 
	C276.890381,34.625378 275.937164,34.814461 274.168213,35.178093 
	C272.784912,35.117111 271.401611,35.056126 269.888153,34.516891 
	C269.267426,34.717270 268.646729,34.917648 267.676697,35.467373 
	C267.424438,35.685619 267.141449,35.851425 266.145721,36.299709 
	C265.801910,38.371506 265.162384,40.442734 265.158386,42.515186 
	C265.093842,76.119926 265.022980,109.725365 265.230103,143.328949 
	C265.253113,147.059814 266.964630,150.780273 267.271484,154.858917 
	C267.728119,155.997925 267.951813,157.906082 268.686066,158.128448 
	C270.704834,158.739807 272.937622,158.803162 275.085938,158.804779 
	C316.345917,158.835861 357.605957,158.832687 398.865967,158.805008 
	C400.510498,158.803894 402.259430,158.785599 403.772339,158.247986 
	C405.583893,157.604233 406.839233,156.356903 403.587738,154.794495 
M401.274078,169.489182 
	C399.966827,169.321899 398.659668,169.009155 397.352325,169.008438 
	C355.639282,168.985443 313.926239,168.977554 272.213318,169.049057 
	C270.497742,169.052002 268.783539,169.842911 267.035553,171.053940 
	C269.034637,171.692673 271.032349,172.883759 273.033051,172.888794 
	C315.191376,172.995056 357.350067,172.973862 399.508636,172.943161 
	C401.203949,172.941925 402.898956,172.602417 404.594116,172.420517 
	C404.646698,172.033203 404.699280,171.645889 404.751892,171.258575 
	C403.828674,170.807968 402.905487,170.357346 401.274078,169.489182 
M316.307068,283.980286 
	C320.296692,284.585327 322.182251,283.234192 322.904572,278.873840 
	C327.118469,253.436096 331.667206,228.053894 336.078308,202.648651 
	C336.549591,199.934143 336.862091,197.192062 337.317474,193.973267 
	C332.738800,193.973267 328.765472,194.178970 324.824341,193.911270 
	C321.378662,193.677231 320.191223,195.183670 319.740448,198.367081 
	C318.761230,205.282211 317.515076,212.160538 316.313721,219.042694 
	C315.877808,221.539932 315.258606,224.005173 314.646698,226.838379 
	C301.638580,217.017319 291.283264,216.259247 278.164001,224.589874 
	C264.762390,233.099762 259.965607,246.089127 260.939453,261.443390 
	C261.546814,271.019226 265.473450,279.054626 274.593445,283.017090 
	C284.322998,287.244415 293.784119,285.779785 302.327515,279.296082 
	C303.450348,278.443970 304.583221,277.605164 305.880524,276.633575 
	C307.724426,283.942291 307.724426,283.942291 316.307068,283.980286 
M405.018646,270.862793 
	C409.432587,245.499573 413.846558,220.136337 418.331848,194.363068 
	C412.286133,194.363068 406.901215,194.363068 401.453094,194.363068 
	C399.493317,205.272583 397.596680,215.830765 395.650024,226.667358 
	C382.133575,217.548798 371.431183,216.795685 359.998322,223.789276 
	C346.001312,232.351395 338.834381,249.256287 342.266357,265.614136 
	C345.272827,279.943939 357.312408,287.950317 371.718292,284.418640 
	C376.988861,283.126495 381.800995,279.964294 386.784027,277.672791 
	C388.970520,283.910645 388.971832,284.003571 392.919861,283.947479 
	C403.967010,283.790588 402.641113,285.858856 404.392090,274.163269 
	C404.514984,273.342407 404.717590,272.533447 405.018646,270.862793 
M210.638763,199.852600 
	C199.545425,192.827667 187.826752,193.097839 176.135056,197.624405 
	C164.521988,202.120544 157.594604,212.604553 158.175888,223.873444 
	C158.795990,235.894928 167.097351,240.851898 177.169800,244.216568 
	C181.262390,245.583679 185.322800,247.187592 189.158707,249.150986 
	C195.492661,252.393005 197.286667,258.992859 193.763474,264.796143 
	C189.255325,272.221771 175.373703,273.299194 170.243515,266.322510 
	C168.497177,263.947601 168.032913,260.629944 166.805649,257.256012 
	C162.513077,257.256012 157.858032,257.039154 153.249039,257.403992 
	C152.052658,257.498688 150.201614,259.287292 150.010559,260.510193 
	C148.718109,268.783203 153.267044,277.207214 160.858322,281.313263 
	C173.373505,288.082581 193.372681,286.031311 204.273529,276.860291 
	C219.544250,264.012787 216.497849,242.752808 198.216614,234.835114 
	C193.176620,232.652267 188.011459,230.756287 182.988998,228.535812 
	C178.708817,226.643539 175.786362,223.695618 176.594193,218.473511 
	C177.358902,213.530106 181.794037,209.718277 187.501205,209.106995 
	C192.643600,208.556229 198.698914,210.800354 199.193390,214.659470 
	C199.982330,220.816742 203.688873,220.411789 207.929077,220.172089 
	C210.255325,220.040573 212.599228,220.030243 214.925949,220.147736 
	C217.567429,220.281113 218.330170,219.090698 218.380005,216.562897 
	C218.510040,209.969147 216.392059,204.493713 210.638763,199.852600 
M110.742538,385.005463 
	C100.706932,384.333435 94.676926,379.999634 92.772827,370.157257 
	C90.021812,355.937164 93.544273,343.043640 103.946648,332.599365 
	C110.086678,326.434570 117.798279,324.193207 126.392746,325.494904 
	C133.056107,326.504150 137.763550,329.867279 139.325790,336.883087 
	C139.585739,338.050568 140.877594,339.828064 141.771072,339.876526 
	C147.020676,340.161072 152.293564,340.016388 157.871902,340.016388 
	C158.218277,330.343658 155.587921,322.621216 148.362350,316.938904 
	C136.667633,307.741913 116.219757,307.230530 101.540245,315.585449 
	C81.385788,327.056396 70.146568,353.066376 75.532646,375.685211 
	C78.312889,387.360840 85.287201,395.625092 96.803459,398.661591 
	C111.255371,402.472107 125.288071,400.653107 137.760864,391.694611 
	C144.642593,386.751801 149.626938,380.297791 152.614700,371.206116 
	C146.505920,371.206116 141.094818,371.113892 135.693146,371.298187 
	C134.807785,371.328400 133.629425,372.397278 133.152817,373.288849 
	C128.523590,381.948730 120.955750,385.087158 110.742538,385.005463 
M453.681335,234.560089 
	C466.448273,231.940582 471.355682,236.648315 469.202637,249.518845 
	C468.241516,255.264099 467.108521,260.980682 466.151764,266.726624 
	C465.238312,272.212250 464.452484,277.719147 463.534424,283.713593 
	C468.782257,283.713593 473.258575,283.877838 477.706085,283.592560 
	C478.754089,283.525330 480.417084,282.065186 480.592560,281.039673 
	C482.865448,267.758392 485.002594,254.451889 486.959442,241.120239 
	C487.339020,238.534286 487.110321,235.756592 486.631805,233.165253 
	C484.773895,223.104355 475.283081,217.078354 463.661377,219.556747 
	C457.582977,220.852982 451.932281,224.154892 445.814087,226.663452 
	C447.586334,216.095139 449.414246,205.195084 451.360840,193.587265 
	C447.513062,193.587265 444.333160,193.992615 441.298981,193.500000 
	C435.582550,192.571915 434.004730,195.292572 433.182312,200.409836 
	C430.066589,219.797012 426.537231,239.117599 423.183685,258.466736 
	C421.772766,266.607269 420.414337,274.756927 418.888489,283.748383 
	C423.412201,283.748383 427.202454,283.538513 430.958374,283.807556 
	C434.693726,284.075165 436.220734,282.639801 436.796722,278.937958 
	C438.331696,269.072845 440.190399,259.256592 442.018127,249.439117 
	C443.250244,242.821075 446.726044,237.791733 453.681335,234.560089 
M218.308823,337.802399 
	C210.567291,341.631042 205.264267,347.449890 202.325500,356.707397 
	C205.506271,356.707397 207.625015,356.625885 209.735428,356.723816 
	C214.618851,356.950439 218.945892,356.889557 222.295197,351.937225 
	C224.941391,348.024506 234.039917,347.204224 238.119385,349.507538 
	C242.111038,351.761292 242.745285,355.743835 241.639175,359.475616 
	C241.256973,360.765106 237.796051,361.636047 235.667267,361.814728 
	C230.700516,362.231598 225.494904,361.292053 220.743546,362.414856 
	C214.579376,363.871521 207.982834,365.711487 202.959183,369.318085 
	C192.697189,376.685425 193.739105,393.164703 204.639435,398.132263 
	C214.340714,402.553345 224.164185,401.132782 232.952393,394.660858 
	C234.078369,393.831635 235.190735,392.983948 236.483398,392.014343 
	C238.318527,399.136932 238.318527,399.137512 245.589417,399.114075 
	C246.755219,399.110291 248.100769,399.466492 249.044357,399.004700 
	C250.435699,398.323853 252.411774,397.218994 252.634018,396.016571 
	C255.053085,382.928497 257.478821,369.827362 259.289093,356.645508 
	C260.750641,346.002991 254.421753,337.761688 243.981720,335.410156 
	C235.431839,333.484406 227.121811,334.256348 218.308823,337.802399 
M422.724731,399.747803 
	C440.649811,402.122467 458.247467,393.158997 461.463104,379.461334 
	C454.344635,380.159302 447.430542,377.507416 440.820465,383.478271 
	C433.670105,389.937225 422.222595,386.306671 420.080566,377.983856 
	C418.678131,372.534729 419.359314,371.548401 425.041168,371.512665 
	C437.189697,371.436249 449.340485,371.557312 461.485931,371.344727 
	C463.061249,371.317139 465.681946,370.093292 466.008514,368.919861 
	C469.946716,354.767883 465.444794,337.800690 446.679230,334.891418 
	C423.486328,331.295685 403.483185,348.532501 402.965790,372.270782 
	C402.645386,386.971283 408.631775,395.597595 422.724731,399.747803 
M289.182983,385.619415 
	C288.576172,385.055511 287.554443,384.572174 287.426941,383.915253 
	C286.209015,377.641052 281.640900,377.801392 276.856995,378.181732 
	C275.202393,378.313263 273.526764,378.285583 271.866058,378.211090 
	C269.150085,378.089264 268.374847,379.474487 268.651489,381.945374 
	C269.232819,387.137482 271.298859,391.513000 275.480225,394.770508 
	C286.482910,403.342407 308.305420,402.099884 318.100311,392.197876 
	C319.935333,390.342804 321.495758,388.062134 322.651489,385.716064 
	C327.377350,376.122559 323.757233,367.214386 313.768768,363.579620 
	C311.117859,362.614960 308.372253,361.906403 305.659393,361.117157 
	C302.307678,360.142029 298.809479,359.513062 295.644073,358.121521 
	C294.077850,357.432983 292.088806,355.331573 292.141327,353.939240 
	C292.206390,352.214844 293.832245,350.009247 295.414154,348.984467 
	C299.968811,346.033691 306.434967,347.508301 310.162689,351.732086 
	C310.968109,352.644684 312.172394,353.735352 313.242859,353.791412 
	C317.664062,354.023041 322.104462,353.888489 326.426666,353.888489 
	C327.320465,345.808868 323.273438,338.890900 315.323914,336.402161 
	C303.717834,332.768677 292.251862,333.155457 282.235626,341.239685 
	C277.016449,345.452148 274.030762,351.010864 275.205627,357.858551 
	C276.333374,364.431396 281.035919,368.108612 287.085938,370.065460 
	C292.140106,371.700195 297.418396,372.714874 302.334869,374.665771 
	C304.252655,375.426727 306.704834,378.027100 306.663788,379.735565 
	C306.611908,381.893280 304.572968,385.461151 302.839996,385.829834 
	C298.691620,386.712341 294.220642,386.078339 289.182983,385.619415 
M390.850586,374.376648 
	C390.178894,369.616608 387.265594,366.552582 383.076263,364.737366 
	C379.885529,363.354797 376.528931,362.331360 373.199127,361.299835 
	C369.547577,360.168671 365.700867,359.550995 362.195953,358.092468 
	C357.828461,356.275055 357.606659,351.710999 361.454620,349.146179 
	C365.953552,346.147583 373.293091,347.453888 376.862183,351.570862 
	C377.880219,352.745178 379.704956,353.652954 381.259644,353.836426 
	C384.215271,354.185150 387.248993,353.801300 390.239014,353.949219 
	C393.254364,354.098328 394.076141,352.729645 393.584381,349.990845 
	C392.500702,343.955963 389.242767,339.300354 383.631104,337.138123 
	C372.141357,332.710846 360.764587,333.035858 350.279694,340.162476 
	C344.009827,344.424164 340.832825,350.501038 342.132080,358.190491 
	C343.346649,365.378967 348.822235,368.527893 355.130219,370.489746 
	C359.735443,371.921967 364.503143,372.869934 369.034302,374.492188 
	C374.017303,376.276245 375.083771,380.471466 371.913452,384.285858 
	C367.941895,389.064240 356.070312,388.835358 353.966431,383.170807 
	C351.806274,377.354706 348.030060,378.210876 343.872437,378.204834 
	C334.648346,378.191376 332.993469,381.057404 337.621429,389.377930 
	C338.571472,391.086090 339.883240,392.697571 341.343506,394.000305 
	C349.874573,401.611115 368.517426,402.599091 379.545776,396.160400 
	C387.604736,391.455322 391.820404,384.682220 390.850586,374.376648 
M525.264038,338.207428 
	C513.805908,332.526093 502.369049,332.882080 491.385406,339.140625 
	C484.371796,343.136932 480.400574,349.430176 481.618195,357.857147 
	C482.736298,365.595306 488.681732,368.671906 495.314026,370.716003 
	C499.764801,372.087708 504.377319,372.982849 508.742096,374.572723 
	C513.596008,376.340698 514.634460,380.773865 511.424896,384.409912 
	C507.394714,388.975708 496.085144,388.911224 493.785461,383.458069 
	C491.392487,377.783600 487.631134,378.126953 483.154449,378.169983 
	C474.292847,378.255219 472.729431,380.693665 476.874603,388.732422 
	C477.985626,390.887054 479.604492,392.965027 481.457764,394.521423 
	C492.891174,404.123260 516.678345,401.827698 526.245300,390.340179 
	C534.721497,380.162354 531.354736,367.469849 518.912231,363.249573 
	C513.406738,361.382202 507.653351,360.224548 502.206726,358.217529 
	C500.549561,357.606903 498.380920,355.119598 498.523254,353.700012 
	C498.709534,351.842438 500.606201,349.549316 502.386200,348.577423 
	C506.933746,346.094513 513.071716,347.799805 516.407166,351.492981 
	C517.470703,352.670502 519.248169,353.645813 520.807007,353.838348 
	C523.760742,354.203125 526.796814,353.834442 529.790955,353.956970 
	C533.137817,354.093903 534.345398,352.200012 533.021118,349.627045 
	C531.026672,345.751984 528.293457,342.257172 525.264038,338.207428 
M578.679321,361.111664 
	C575.174622,360.085785 571.515442,359.409637 568.203430,357.947357 
	C563.869568,356.033905 563.713013,352.254303 567.492126,349.424805 
	C571.960815,346.079010 579.535889,347.211304 583.176147,351.648621 
	C583.944031,352.584625 585.127930,353.734467 586.173645,353.790802 
	C590.598694,354.029022 595.043945,353.891785 599.648071,353.891785 
	C600.328369,347.660492 598.204773,343.233917 594.026306,339.713776 
	C585.724304,332.719666 567.795471,332.570221 557.703796,339.331970 
	C551.137024,343.731964 547.067871,349.613281 548.262146,357.762146 
	C549.415344,365.630249 555.556946,368.809509 562.369568,370.871002 
	C566.825928,372.219482 571.439270,373.094299 575.815552,374.650208 
	C580.197266,376.207977 581.243347,379.728241 578.905457,383.377869 
	C575.077820,389.353088 562.243835,389.044373 559.799866,382.458832 
	C558.293762,378.400330 556.128174,378.020508 552.776184,378.168884 
	C550.115784,378.286652 547.382507,377.871918 544.809692,378.363708 
	C543.612000,378.592651 541.826721,380.419006 541.837036,381.506805 
	C541.888245,386.935516 544.107971,391.593506 548.571594,394.808929 
	C559.065552,402.368347 570.678833,401.790771 581.932434,397.702911 
	C586.734680,395.958527 591.441101,391.947723 594.469238,387.730469 
	C601.196533,378.361298 597.334900,367.665070 586.594727,363.535309 
	C584.271545,362.641968 581.849304,362.006348 578.679321,361.111664 
M171.787811,340.933411 
	C168.500092,359.988922 165.212372,379.044434 161.797806,398.835144 
	C165.832825,398.835144 169.011383,398.438751 172.049774,398.922577 
	C177.399979,399.774506 179.252274,397.393646 180.079254,392.453766 
	C184.495682,366.073120 189.154861,339.733124 193.700562,313.373962 
	C193.942383,311.971710 193.915619,310.523102 194.048340,308.595917 
	C189.723648,308.595917 185.902649,308.842285 182.129059,308.524902 
	C178.530823,308.222260 177.109161,309.620972 176.576187,313.076508 
	C175.183716,322.104370 173.510834,331.088989 171.787811,340.933411 
M505.916443,228.132523 
	C502.755676,246.509949 499.594910,264.887390 496.394409,283.495789 
	C502.596436,283.495789 507.680054,283.495789 513.275330,283.495789 
	C516.938049,262.625305 520.569153,241.935150 524.349060,220.397079 
	C520.468811,220.397079 517.525879,220.401520 514.582947,220.396210 
	C507.418274,220.383255 507.418274,220.381424 505.916443,228.132523 
M224.898102,277.060913 
	C224.587280,279.090118 224.276459,281.119324 223.878571,283.716949 
	C228.747787,283.716949 232.885971,283.549133 237.002930,283.772522 
	C240.047104,283.937683 240.890137,282.616638 241.357880,279.814972 
	C243.630615,266.201660 246.176239,252.634155 248.555283,239.038177 
	C249.599319,233.071579 250.476685,227.075790 251.541885,220.389267 
	C246.506119,220.389267 242.384476,220.470200 238.267914,220.360474 
	C235.576218,220.288712 234.541397,221.443756 234.095703,224.087845 
	C231.165329,241.471634 228.072800,258.828094 224.898102,277.060913 
M528.903625,199.605515 
	C525.502808,193.193359 519.220825,191.009125 513.575134,194.275833 
	C508.839264,197.016098 507.241089,203.002945 509.991241,207.701706 
	C512.830688,212.553085 519.611267,213.903366 524.952759,210.694382 
	C528.966675,208.282990 529.776978,204.621964 528.903625,199.605515 
M248.911789,193.081650 
	C247.419510,193.058395 245.897491,192.833969 244.440491,193.049332 
	C239.938904,193.714722 236.462692,197.336853 236.122635,201.759705 
	C235.764755,206.414398 237.705322,209.782379 242.131836,211.582809 
	C247.282837,213.677917 253.735611,211.505585 255.890518,206.931641 
	C258.438202,201.523926 256.234070,196.690308 248.911789,193.081650 
z"/>
<path fill="#E7DDBF" opacity="1.000000" stroke="none" 
	d="
M315.855194,283.980347 
	C307.724426,283.942291 307.724426,283.942291 305.880524,276.633575 
	C304.583221,277.605164 303.450348,278.443970 302.327515,279.296082 
	C293.784119,285.779785 284.322998,287.244415 274.593445,283.017090 
	C265.473450,279.054626 261.546814,271.019226 260.939453,261.443390 
	C259.965607,246.089127 264.762390,233.099762 278.164001,224.589874 
	C291.283264,216.259247 301.638580,217.017319 314.646698,226.838379 
	C315.258606,224.005173 315.877808,221.539932 316.313721,219.042694 
	C317.515076,212.160538 318.761230,205.282211 319.740448,198.367081 
	C320.191223,195.183670 321.378662,193.677231 324.824341,193.911270 
	C328.765472,194.178970 332.738800,193.973267 337.317474,193.973267 
	C336.862091,197.192062 336.549591,199.934143 336.078308,202.648651 
	C331.667206,228.053894 327.118469,253.436096 322.904572,278.873840 
	C322.182251,283.234192 320.296692,284.585327 315.855194,283.980347 
M303.119354,235.043686 
	C295.099518,232.612961 288.279297,234.501892 283.160034,241.149216 
	C277.901794,247.977036 276.587341,255.765213 280.229279,263.593689 
	C281.463593,266.246887 284.680206,268.740387 287.537292,269.730927 
	C295.606537,272.528473 304.987885,267.339478 308.981720,258.613129 
	C313.428925,248.896149 311.635101,240.746323 303.119354,235.043686 
z"/>
<path fill="#E7DDBF" opacity="1.000000" stroke="none" 
	d="
M404.950867,271.290894 
	C404.717590,272.533447 404.514984,273.342407 404.392090,274.163269 
	C402.641113,285.858856 403.967010,283.790588 392.919861,283.947479 
	C388.971832,284.003571 388.970520,283.910645 386.784027,277.672791 
	C381.800995,279.964294 376.988861,283.126495 371.718292,284.418640 
	C357.312408,287.950317 345.272827,279.943939 342.266357,265.614136 
	C338.834381,249.256287 346.001312,232.351395 359.998322,223.789276 
	C371.431183,216.795685 382.133575,217.548798 395.650024,226.667358 
	C397.596680,215.830765 399.493317,205.272583 401.453094,194.363068 
	C406.901215,194.363068 412.286133,194.363068 418.331848,194.363068 
	C413.846558,220.136337 409.432587,245.499573 404.950867,271.290894 
M369.108887,236.394531 
	C361.098297,241.811295 358.357361,249.555023 359.375671,258.845184 
	C360.142273,265.838806 365.551727,270.445709 372.625549,270.369781 
	C381.262787,270.277069 388.933319,263.798187 391.205627,254.415344 
	C392.709991,248.203674 392.898621,241.935654 387.555328,237.359482 
	C382.155518,232.734894 375.946045,233.251297 369.108887,236.394531 
z"/>
<path fill="#E7DDBE" opacity="1.000000" stroke="none" 
	d="
M210.892029,200.104324 
	C216.392059,204.493713 218.510040,209.969147 218.380005,216.562897 
	C218.330170,219.090698 217.567429,220.281113 214.925949,220.147736 
	C212.599228,220.030243 210.255325,220.040573 207.929077,220.172089 
	C203.688873,220.411789 199.982330,220.816742 199.193390,214.659470 
	C198.698914,210.800354 192.643600,208.556229 187.501205,209.106995 
	C181.794037,209.718277 177.358902,213.530106 176.594193,218.473511 
	C175.786362,223.695618 178.708817,226.643539 182.988998,228.535812 
	C188.011459,230.756287 193.176620,232.652267 198.216614,234.835114 
	C216.497849,242.752808 219.544250,264.012787 204.273529,276.860291 
	C193.372681,286.031311 173.373505,288.082581 160.858322,281.313263 
	C153.267044,277.207214 148.718109,268.783203 150.010559,260.510193 
	C150.201614,259.287292 152.052658,257.498688 153.249039,257.403992 
	C157.858032,257.039154 162.513077,257.256012 166.805649,257.256012 
	C168.032913,260.629944 168.497177,263.947601 170.243515,266.322510 
	C175.373703,273.299194 189.255325,272.221771 193.763474,264.796143 
	C197.286667,258.992859 195.492661,252.393005 189.158707,249.150986 
	C185.322800,247.187592 181.262390,245.583679 177.169800,244.216568 
	C167.097351,240.851898 158.795990,235.894928 158.175888,223.873444 
	C157.594604,212.604553 164.521988,202.120544 176.135056,197.624405 
	C187.826752,193.097839 199.545425,192.827667 210.892029,200.104324 
z"/>
<path fill="#E7DDBE" opacity="1.000000" stroke="none" 
	d="
M111.177864,385.017578 
	C120.955750,385.087158 128.523590,381.948730 133.152817,373.288849 
	C133.629425,372.397278 134.807785,371.328400 135.693146,371.298187 
	C141.094818,371.113892 146.505920,371.206116 152.614700,371.206116 
	C149.626938,380.297791 144.642593,386.751801 137.760864,391.694611 
	C125.288071,400.653107 111.255371,402.472107 96.803459,398.661591 
	C85.287201,395.625092 78.312889,387.360840 75.532646,375.685211 
	C70.146568,353.066376 81.385788,327.056396 101.540245,315.585449 
	C116.219757,307.230530 136.667633,307.741913 148.362350,316.938904 
	C155.587921,322.621216 158.218277,330.343658 157.871902,340.016388 
	C152.293564,340.016388 147.020676,340.161072 141.771072,339.876526 
	C140.877594,339.828064 139.585739,338.050568 139.325790,336.883087 
	C137.763550,329.867279 133.056107,326.504150 126.392746,325.494904 
	C117.798279,324.193207 110.086678,326.434570 103.946648,332.599365 
	C93.544273,343.043640 90.021812,355.937164 92.772827,370.157257 
	C94.676926,379.999634 100.706932,384.333435 111.177864,385.017578 
z"/>
<path fill="#BBD9BE" opacity="1.000000" stroke="none" 
	d="
M266.827759,35.964798 
	C267.141449,35.851425 267.424438,35.685619 268.184753,35.386837 
	C269.134644,35.202583 269.576477,35.098866 270.018311,34.995148 
	C271.401611,35.056126 272.784912,35.117111 274.943726,35.235802 
	C276.488708,35.192986 277.258240,35.092457 278.027740,34.991928 
	C279.408234,35.050716 280.788727,35.109509 282.835022,35.239998 
	C284.674438,35.206226 285.848022,35.100761 287.021606,34.995293 
	C287.764130,35.051170 288.506653,35.107048 290.064209,35.229713 
	C326.588074,35.331810 362.296875,35.355465 398.005585,35.429470 
	C400.307068,35.434238 402.607727,35.827534 404.908783,36.040092 
	C404.929810,36.207142 404.950806,36.374195 404.932312,37.216133 
	C404.866577,73.460739 404.836517,109.030457 404.831757,144.600174 
	C404.831604,145.746567 405.090668,146.892975 405.228882,148.039383 
	C404.682434,148.660004 404.136017,149.280624 402.857849,149.921448 
	C399.981537,149.914368 397.834137,149.947418 395.692841,149.848282 
	C389.816040,149.576202 383.941803,149.248596 378.147949,148.512604 
	C378.097137,146.043961 377.964935,144.005676 378.300018,141.853333 
	C382.249298,141.671539 385.731079,141.562851 389.213318,141.544495 
	C396.653534,141.505280 396.660675,141.524445 396.666992,134.318726 
	C396.682220,116.887894 396.698792,99.457054 396.698059,82.026222 
	C396.697601,70.737732 396.700378,59.449001 396.616516,48.161015 
	C396.603424,46.403381 397.363312,43.803757 393.483826,44.141357 
	C374.621704,44.037868 356.218079,43.977833 337.814636,44.013191 
	C329.538269,44.029095 321.262238,44.235561 312.560120,44.217415 
	C309.760864,44.171368 307.387573,44.263462 304.561035,44.221130 
	C295.096497,44.154423 286.085236,44.222145 276.680969,44.293633 
	C275.908661,45.663528 275.201050,47.029018 275.198364,48.395889 
	C275.140839,77.839279 275.219604,107.283066 275.097229,136.726059 
	C275.081482,140.519028 276.449982,141.731491 280.044647,141.578522 
	C284.603424,141.384552 289.176666,141.531616 293.674988,141.531616 
	C293.918793,149.847580 293.918793,149.848404 286.986816,149.847366 
	C282.661774,149.846710 278.336700,149.854813 274.011688,149.838211 
	C266.926086,149.811020 266.931000,149.803879 266.924866,142.750366 
	C266.894012,107.155174 266.860413,71.559990 266.827759,35.964798 
z"/>
<path fill="#E6DDBE" opacity="1.000000" stroke="none" 
	d="
M453.307953,234.706665 
	C446.726044,237.791733 443.250244,242.821075 442.018127,249.439117 
	C440.190399,259.256592 438.331696,269.072845 436.796722,278.937958 
	C436.220734,282.639801 434.693726,284.075165 430.958374,283.807556 
	C427.202454,283.538513 423.412201,283.748383 418.888489,283.748383 
	C420.414337,274.756927 421.772766,266.607269 423.183685,258.466736 
	C426.537231,239.117599 430.066589,219.797012 433.182312,200.409836 
	C434.004730,195.292572 435.582550,192.571915 441.298981,193.500000 
	C444.333160,193.992615 447.513062,193.587265 451.360840,193.587265 
	C449.414246,205.195084 447.586334,216.095139 445.814087,226.663452 
	C451.932281,224.154892 457.582977,220.852982 463.661377,219.556747 
	C475.283081,217.078354 484.773895,223.104355 486.631805,233.165253 
	C487.110321,235.756592 487.339020,238.534286 486.959442,241.120239 
	C485.002594,254.451889 482.865448,267.758392 480.592560,281.039673 
	C480.417084,282.065186 478.754089,283.525330 477.706085,283.592560 
	C473.258575,283.877838 468.782257,283.713593 463.534424,283.713593 
	C464.452484,277.719147 465.238312,272.212250 466.151764,266.726624 
	C467.108521,260.980682 468.241516,255.264099 469.202637,249.518845 
	C471.355682,236.648315 466.448273,231.940582 453.307953,234.706665 
z"/>
<path fill="#E6DCBD" opacity="1.000000" stroke="none" 
	d="
M218.658859,337.645447 
	C227.121811,334.256348 235.431839,333.484406 243.981720,335.410156 
	C254.421753,337.761688 260.750641,346.002991 259.289093,356.645508 
	C257.478821,369.827362 255.053085,382.928497 252.634018,396.016571 
	C252.411774,397.218994 250.435699,398.323853 249.044357,399.004700 
	C248.100769,399.466492 246.755219,399.110291 245.589417,399.114075 
	C238.318527,399.137512 238.318527,399.136932 236.483398,392.014343 
	C235.190735,392.983948 234.078369,393.831635 232.952393,394.660858 
	C224.164185,401.132782 214.340714,402.553345 204.639435,398.132263 
	C193.739105,393.164703 192.697189,376.685425 202.959183,369.318085 
	C207.982834,365.711487 214.579376,363.871521 220.743546,362.414856 
	C225.494904,361.292053 230.700516,362.231598 235.667267,361.814728 
	C237.796051,361.636047 241.256973,360.765106 241.639175,359.475616 
	C242.745285,355.743835 242.111038,351.761292 238.119385,349.507538 
	C234.039917,347.204224 224.941391,348.024506 222.295197,351.937225 
	C218.945892,356.889557 214.618851,356.950439 209.735428,356.723816 
	C207.625015,356.625885 205.506271,356.707397 202.325500,356.707397 
	C205.264267,347.449890 210.567291,341.631042 218.658859,337.645447 
M218.361984,374.591217 
	C213.371643,378.914032 212.980362,384.094910 217.475967,386.323059 
	C225.428879,390.264740 237.873169,382.352509 238.154678,372.007660 
	C231.704788,372.754791 225.385345,373.486786 218.361984,374.591217 
z"/>
<path fill="#E6DDBE" opacity="1.000000" stroke="none" 
	d="
M422.321533,399.664551 
	C408.631775,395.597595 402.645386,386.971283 402.965790,372.270782 
	C403.483185,348.532501 423.486328,331.295685 446.679230,334.891418 
	C465.444794,337.800690 469.946716,354.767883 466.008514,368.919861 
	C465.681946,370.093292 463.061249,371.317139 461.485931,371.344727 
	C449.340485,371.557312 437.189697,371.436249 425.041168,371.512665 
	C419.359314,371.548401 418.678131,372.534729 420.080566,377.983856 
	C422.222595,386.306671 433.670105,389.937225 440.820465,383.478271 
	C447.430542,377.507416 454.344635,380.159302 461.463104,379.461334 
	C458.247467,393.158997 440.649811,402.122467 422.321533,399.664551 
M434.522125,361.210419 
	C439.785248,361.210419 445.048370,361.210419 450.242706,361.210419 
	C450.794495,353.347137 447.722229,349.376984 440.969299,348.434692 
	C432.584290,347.264618 424.329620,352.801788 422.601349,361.208679 
	C426.313873,361.208679 429.925476,361.208679 434.522125,361.210419 
z"/>
<path fill="#E6DBBD" opacity="1.000000" stroke="none" 
	d="
M289.531433,385.837952 
	C294.220642,386.078339 298.691620,386.712341 302.839996,385.829834 
	C304.572968,385.461151 306.611908,381.893280 306.663788,379.735565 
	C306.704834,378.027100 304.252655,375.426727 302.334869,374.665771 
	C297.418396,372.714874 292.140106,371.700195 287.085938,370.065460 
	C281.035919,368.108612 276.333374,364.431396 275.205627,357.858551 
	C274.030762,351.010864 277.016449,345.452148 282.235626,341.239685 
	C292.251862,333.155457 303.717834,332.768677 315.323914,336.402161 
	C323.273438,338.890900 327.320465,345.808868 326.426666,353.888489 
	C322.104462,353.888489 317.664062,354.023041 313.242859,353.791412 
	C312.172394,353.735352 310.968109,352.644684 310.162689,351.732086 
	C306.434967,347.508301 299.968811,346.033691 295.414154,348.984467 
	C293.832245,350.009247 292.206390,352.214844 292.141327,353.939240 
	C292.088806,355.331573 294.077850,357.432983 295.644073,358.121521 
	C298.809479,359.513062 302.307678,360.142029 305.659393,361.117157 
	C308.372253,361.906403 311.117859,362.614960 313.768768,363.579620 
	C323.757233,367.214386 327.377350,376.122559 322.651489,385.716064 
	C321.495758,388.062134 319.935333,390.342804 318.100311,392.197876 
	C308.305420,402.099884 286.482910,403.342407 275.480225,394.770508 
	C271.298859,391.513000 269.232819,387.137482 268.651489,381.945374 
	C268.374847,379.474487 269.150085,378.089264 271.866058,378.211090 
	C273.526764,378.285583 275.202393,378.313263 276.856995,378.181732 
	C281.640900,377.801392 286.209015,377.641052 287.426941,383.915253 
	C287.554443,384.572174 288.576172,385.055511 289.531433,385.837952 
z"/>
<path fill="#E6DBBD" opacity="1.000000" stroke="none" 
	d="
M390.908752,374.760315 
	C391.820404,384.682220 387.604736,391.455322 379.545776,396.160400 
	C368.517426,402.599091 349.874573,401.611115 341.343506,394.000305 
	C339.883240,392.697571 338.571472,391.086090 337.621429,389.377930 
	C332.993469,381.057404 334.648346,378.191376 343.872437,378.204834 
	C348.030060,378.210876 351.806274,377.354706 353.966431,383.170807 
	C356.070312,388.835358 367.941895,389.064240 371.913452,384.285858 
	C375.083771,380.471466 374.017303,376.276245 369.034302,374.492188 
	C364.503143,372.869934 359.735443,371.921967 355.130219,370.489746 
	C348.822235,368.527893 343.346649,365.378967 342.132080,358.190491 
	C340.832825,350.501038 344.009827,344.424164 350.279694,340.162476 
	C360.764587,333.035858 372.141357,332.710846 383.631104,337.138123 
	C389.242767,339.300354 392.500702,343.955963 393.584381,349.990845 
	C394.076141,352.729645 393.254364,354.098328 390.239014,353.949219 
	C387.248993,353.801300 384.215271,354.185150 381.259644,353.836426 
	C379.704956,353.652954 377.880219,352.745178 376.862183,351.570862 
	C373.293091,347.453888 365.953552,346.147583 361.454620,349.146179 
	C357.606659,351.710999 357.828461,356.275055 362.195953,358.092468 
	C365.700867,359.550995 369.547577,360.168671 373.199127,361.299835 
	C376.528931,362.331360 379.885529,363.354797 383.076263,364.737366 
	C387.265594,366.552582 390.178894,369.616608 390.908752,374.760315 
z"/>
<path fill="#E6DBBD" opacity="1.000000" stroke="none" 
	d="
M525.569153,338.404083 
	C528.293457,342.257172 531.026672,345.751984 533.021118,349.627045 
	C534.345398,352.200012 533.137817,354.093903 529.790955,353.956970 
	C526.796814,353.834442 523.760742,354.203125 520.807007,353.838348 
	C519.248169,353.645813 517.470703,352.670502 516.407166,351.492981 
	C513.071716,347.799805 506.933746,346.094513 502.386200,348.577423 
	C500.606201,349.549316 498.709534,351.842438 498.523254,353.700012 
	C498.380920,355.119598 500.549561,357.606903 502.206726,358.217529 
	C507.653351,360.224548 513.406738,361.382202 518.912231,363.249573 
	C531.354736,367.469849 534.721497,380.162354 526.245300,390.340179 
	C516.678345,401.827698 492.891174,404.123260 481.457764,394.521423 
	C479.604492,392.965027 477.985626,390.887054 476.874603,388.732422 
	C472.729431,380.693665 474.292847,378.255219 483.154449,378.169983 
	C487.631134,378.126953 491.392487,377.783600 493.785461,383.458069 
	C496.085144,388.911224 507.394714,388.975708 511.424896,384.409912 
	C514.634460,380.773865 513.596008,376.340698 508.742096,374.572723 
	C504.377319,372.982849 499.764801,372.087708 495.314026,370.716003 
	C488.681732,368.671906 482.736298,365.595306 481.618195,357.857147 
	C480.400574,349.430176 484.371796,343.136932 491.385406,339.140625 
	C502.369049,332.882080 513.805908,332.526093 525.569153,338.404083 
z"/>
<path fill="#E6DCBD" opacity="1.000000" stroke="none" 
	d="
M579.075989,361.181854 
	C581.849304,362.006348 584.271545,362.641968 586.594727,363.535309 
	C597.334900,367.665070 601.196533,378.361298 594.469238,387.730469 
	C591.441101,391.947723 586.734680,395.958527 581.932434,397.702911 
	C570.678833,401.790771 559.065552,402.368347 548.571594,394.808929 
	C544.107971,391.593506 541.888245,386.935516 541.837036,381.506805 
	C541.826721,380.419006 543.612000,378.592651 544.809692,378.363708 
	C547.382507,377.871918 550.115784,378.286652 552.776184,378.168884 
	C556.128174,378.020508 558.293762,378.400330 559.799866,382.458832 
	C562.243835,389.044373 575.077820,389.353088 578.905457,383.377869 
	C581.243347,379.728241 580.197266,376.207977 575.815552,374.650208 
	C571.439270,373.094299 566.825928,372.219482 562.369568,370.871002 
	C555.556946,368.809509 549.415344,365.630249 548.262146,357.762146 
	C547.067871,349.613281 551.137024,343.731964 557.703796,339.331970 
	C567.795471,332.570221 585.724304,332.719666 594.026306,339.713776 
	C598.204773,343.233917 600.328369,347.660492 599.648071,353.891785 
	C595.043945,353.891785 590.598694,354.029022 586.173645,353.790802 
	C585.127930,353.734467 583.944031,352.584625 583.176147,351.648621 
	C579.535889,347.211304 571.960815,346.079010 567.492126,349.424805 
	C563.713013,352.254303 563.869568,356.033905 568.203430,357.947357 
	C571.515442,359.409637 575.174622,360.085785 579.075989,361.181854 
z"/>
<path fill="#E6DDBE" opacity="1.000000" stroke="none" 
	d="
M171.868790,340.512146 
	C173.510834,331.088989 175.183716,322.104370 176.576187,313.076508 
	C177.109161,309.620972 178.530823,308.222260 182.129059,308.524902 
	C185.902649,308.842285 189.723648,308.595917 194.048340,308.595917 
	C193.915619,310.523102 193.942383,311.971710 193.700562,313.373962 
	C189.154861,339.733124 184.495682,366.073120 180.079254,392.453766 
	C179.252274,397.393646 177.399979,399.774506 172.049774,398.922577 
	C169.011383,398.438751 165.832825,398.835144 161.797806,398.835144 
	C165.212372,379.044434 168.500092,359.988922 171.868790,340.512146 
z"/>
<path fill="#5A4427" opacity="1.000000" stroke="none" 
	d="
M378.066559,148.942963 
	C383.941803,149.248596 389.816040,149.576202 395.692841,149.848282 
	C397.834137,149.947418 399.981537,149.914368 402.580200,150.074585 
	C403.025146,151.423050 403.015991,152.638580 402.569550,154.333710 
	C400.139130,154.860413 398.145996,154.947937 396.152893,154.948639 
	C353.431000,154.963730 310.709106,154.969086 267.962280,154.858917 
	C267.937317,154.741501 267.893066,154.505569 267.893066,154.505569 
	C266.964630,150.780273 265.253113,147.059814 265.230103,143.328949 
	C265.022980,109.725365 265.093842,76.119926 265.158386,42.515186 
	C265.162384,40.442734 265.801910,38.371506 266.486755,36.132256 
	C266.860413,71.559990 266.894012,107.155174 266.924866,142.750366 
	C266.931000,149.803879 266.926086,149.811020 274.011688,149.838211 
	C278.336700,149.854813 282.661774,149.846710 286.986816,149.847366 
	C293.918793,149.848404 293.918793,149.847580 293.674988,141.531616 
	C289.176666,141.531616 284.603424,141.384552 280.044647,141.578522 
	C276.449982,141.731491 275.081482,140.519028 275.097229,136.726059 
	C275.219604,107.283066 275.140839,77.839279 275.198364,48.395889 
	C275.201050,47.029018 275.908661,45.663528 276.685669,44.635765 
	C277.044525,45.657478 277.005707,46.340824 276.955872,47.491219 
	C276.939880,62.603146 276.929077,77.248032 276.931702,91.892914 
	C276.934174,105.539268 277.015503,119.186058 276.922607,132.831711 
	C276.894287,136.992371 278.294861,139.775848 282.746887,139.796707 
	C286.833588,139.815857 290.922424,139.376694 293.962952,139.200241 
	C295.980713,136.774338 297.547272,134.890945 299.088989,133.393066 
	C298.015808,137.919159 296.796814,142.026962 295.992828,146.214417 
	C295.604431,148.237381 295.967834,150.437042 299.468353,149.651886 
	C300.501740,149.674606 301.193604,149.628464 302.344971,149.718521 
	C310.518677,149.557892 318.232849,149.261063 326.281677,148.991669 
	C327.063477,149.014236 327.510620,149.009354 328.319153,149.217133 
	C333.373810,149.555862 338.067108,149.681946 343.098785,149.766846 
	C344.311188,149.467422 345.185181,149.209167 346.409180,149.169037 
	C356.101349,149.525864 365.443542,149.664581 375.123291,149.759460 
	C376.329407,149.458084 377.197998,149.200516 378.066559,148.942963 
z"/>
<path fill="#E5DBBC" opacity="1.000000" stroke="none" 
	d="
M505.990662,227.715759 
	C507.418274,220.381424 507.418274,220.383255 514.582947,220.396210 
	C517.525879,220.401520 520.468811,220.397079 524.349060,220.397079 
	C520.569153,241.935150 516.938049,262.625305 513.275330,283.495789 
	C507.680054,283.495789 502.596436,283.495789 496.394409,283.495789 
	C499.594910,264.887390 502.755676,246.509949 505.990662,227.715759 
z"/>
<path fill="#E6DBBD" opacity="1.000000" stroke="none" 
	d="
M224.965637,276.627197 
	C228.072800,258.828094 231.165329,241.471634 234.095703,224.087845 
	C234.541397,221.443756 235.576218,220.288712 238.267914,220.360474 
	C242.384476,220.470200 246.506119,220.389267 251.541885,220.389267 
	C250.476685,227.075790 249.599319,233.071579 248.555283,239.038177 
	C246.176239,252.634155 243.630615,266.201660 241.357880,279.814972 
	C240.890137,282.616638 240.047104,283.937683 237.002930,283.772522 
	C232.885971,283.549133 228.747787,283.716949 223.878571,283.716949 
	C224.276459,281.119324 224.587280,279.090118 224.965637,276.627197 
z"/>
<path fill="#A5987C" opacity="1.000000" stroke="none" 
	d="
M401.982300,169.906723 
	C402.905487,170.357346 403.828674,170.807968 404.751892,171.258575 
	C404.699280,171.645889 404.646698,172.033203 404.594116,172.420517 
	C402.898956,172.602417 401.203949,172.941925 399.508636,172.943161 
	C357.350067,172.973862 315.191376,172.995056 273.033051,172.888794 
	C271.032349,172.883759 269.034637,171.692673 267.515442,170.629959 
	C283.270111,170.161667 298.544922,170.107681 313.819763,170.075150 
	C343.207275,170.012589 372.594788,169.962173 401.982300,169.906723 
z"/>
<path fill="#E5DBBC" opacity="1.000000" stroke="none" 
	d="
M528.968079,199.973724 
	C529.776978,204.621964 528.966675,208.282990 524.952759,210.694382 
	C519.611267,213.903366 512.830688,212.553085 509.991241,207.701706 
	C507.241089,203.002945 508.839264,197.016098 513.575134,194.275833 
	C519.220825,191.009125 525.502808,193.193359 528.968079,199.973724 
z"/>
<path fill="#E4D8BA" opacity="1.000000" stroke="none" 
	d="
M249.298950,193.203552 
	C256.234070,196.690308 258.438202,201.523926 255.890518,206.931641 
	C253.735611,211.505585 247.282837,213.677917 242.131836,211.582809 
	C237.705322,209.782379 235.764755,206.414398 236.122635,201.759705 
	C236.462692,197.336853 239.938904,193.714722 244.440491,193.049332 
	C245.897491,192.833969 247.419510,193.058395 249.298950,193.203552 
z"/>
<path fill="#644D31" opacity="1.000000" stroke="none" 
	d="
M404.144440,154.943130 
	C406.839233,156.356903 405.583893,157.604233 403.772339,158.247986 
	C402.259430,158.785599 400.510498,158.803894 398.865967,158.805008 
	C357.605957,158.832687 316.345917,158.835861 275.085938,158.804779 
	C272.937622,158.803162 270.704834,158.739807 268.686066,158.128448 
	C267.951813,157.906082 267.728119,155.997925 267.582275,154.682251 
	C267.893066,154.505569 267.937317,154.741501 267.984497,155.290649 
	C269.655334,156.309082 271.273865,157.162659 272.903442,157.184296 
	C282.372253,157.310120 291.843689,157.237656 301.314240,157.237137 
	C333.713501,157.235382 366.112885,157.273880 398.511566,157.137238 
	C400.392242,157.129303 402.266968,155.707138 404.144440,154.943130 
z"/>
<path fill="#BFB59D" opacity="1.000000" stroke="none" 
	d="
M272.898560,165.213272 
	C271.136353,164.941208 269.374176,164.669144 267.611969,164.397079 
	C267.630859,163.911850 267.649750,163.426620 267.668640,162.941391 
	C269.126434,162.745621 270.584259,162.549835 272.769165,162.335480 
	C273.691406,162.260635 273.886475,162.204361 274.081543,162.148102 
	C275.400055,162.256546 276.718567,162.459915 278.037048,162.459656 
	C319.059814,162.451630 360.082550,162.423706 401.772644,162.490845 
	C403.007172,162.618561 403.574341,162.654282 404.141541,162.690002 
	C404.141541,162.690002 404.217621,162.818680 404.256531,163.186340 
	C404.181671,164.024963 404.067871,164.495956 403.954102,164.966934 
	C403.241150,165.026688 402.528168,165.086441 400.997131,165.067886 
	C358.573700,164.958069 316.968323,164.924713 275.362946,164.908371 
	C274.541504,164.908051 273.720032,165.107193 272.898560,165.213272 
z"/>
<path fill="#B7AD91" opacity="1.000000" stroke="none" 
	d="
M403.866089,154.868805 
	C402.266968,155.707138 400.392242,157.129303 398.511566,157.137238 
	C366.112885,157.273880 333.713501,157.235382 301.314240,157.237137 
	C291.843689,157.237656 282.372253,157.310120 272.903442,157.184296 
	C271.273865,157.162659 269.655334,156.309082 268.009460,155.408051 
	C310.709106,154.969086 353.431000,154.963730 396.152893,154.948639 
	C398.145996,154.947937 400.139130,154.860413 402.591858,154.698517 
	C403.230225,154.653976 403.408997,154.724228 403.866089,154.868805 
z"/>
<path fill="#684E32" opacity="1.000000" stroke="none" 
	d="
M273.110718,165.525879 
	C273.720032,165.107193 274.541504,164.908051 275.362946,164.908371 
	C316.968323,164.924713 358.573700,164.958069 400.642151,165.112717 
	C399.463562,165.758499 397.822845,166.733932 396.180054,166.737488 
	C356.809418,166.822861 317.438568,166.815369 278.067810,166.763504 
	C276.485748,166.761429 274.904480,166.160431 273.110718,165.525879 
z"/>
<path fill="#5A4427" opacity="1.000000" stroke="none" 
	d="
M404.845398,35.676350 
	C402.607727,35.827534 400.307068,35.434238 398.005585,35.429470 
	C362.296875,35.355465 326.588074,35.331810 290.429138,35.144707 
	C291.555634,34.373821 293.130707,33.219090 294.709198,33.214405 
	C329.483521,33.111248 364.258331,33.100922 399.032501,33.228230 
	C400.951508,33.235252 402.865601,34.586857 404.845398,35.676350 
z"/>
<path fill="#5A4427" opacity="1.000000" stroke="none" 
	d="
M405.552246,147.848450 
	C405.090668,146.892975 404.831604,145.746567 404.831757,144.600174 
	C404.836517,109.030457 404.866577,73.460739 405.040741,37.444214 
	C405.909729,40.752827 407.248108,44.507561 407.252319,48.263786 
	C407.281128,74.002693 407.030304,99.741913 406.869568,125.481033 
	C406.827057,132.290039 406.805634,139.099335 406.705109,145.907486 
	C406.696442,146.494781 406.164520,147.074371 405.552246,147.848450 
z"/>
<path fill="#422C0D" opacity="1.000000" stroke="none" 
	d="
M401.628174,169.697952 
	C372.594788,169.962173 343.207275,170.012589 313.819763,170.075150 
	C298.544922,170.107681 283.270111,170.161667 267.531982,170.236328 
	C268.783539,169.842911 270.497742,169.052002 272.213318,169.049057 
	C313.926239,168.977554 355.639282,168.985443 397.352325,169.008438 
	C398.659668,169.009155 399.966827,169.321899 401.628174,169.697952 
z"/>
<path fill="#5A4427" opacity="1.000000" stroke="none" 
	d="
M286.938751,34.727600 
	C285.848022,35.100761 284.674438,35.206226 283.242432,35.154957 
	C284.274628,34.818783 285.565277,34.639343 286.938751,34.727600 
z"/>
<path fill="#5A4427" opacity="1.000000" stroke="none" 
	d="
M277.935669,34.714111 
	C277.258240,35.092457 276.488708,35.192986 275.351562,35.148529 
	C275.937164,34.814461 276.890381,34.625378 277.935669,34.714111 
z"/>
<path fill="#684E32" opacity="1.000000" stroke="none" 
	d="
M404.059326,162.451721 
	C403.574341,162.654282 403.007172,162.618561 402.194672,162.432281 
	C402.625305,162.258957 403.301208,162.236206 404.059326,162.451721 
z"/>
<path fill="#5A4427" opacity="1.000000" stroke="none" 
	d="
M269.953247,34.756020 
	C269.576477,35.098866 269.134644,35.202583 268.359406,35.212166 
	C268.646729,34.917648 269.267426,34.717270 269.953247,34.756020 
z"/>
<path fill="#684E32" opacity="1.000000" stroke="none" 
	d="
M404.220245,164.957245 
	C404.067871,164.495956 404.181671,164.024963 404.331055,163.192200 
	C404.406555,163.536133 404.446472,164.241852 404.220245,164.957245 
z"/>
<path fill="#523217" opacity="1.000000" stroke="none" 
	d="
M274.025024,162.017258 
	C273.886475,162.204361 273.691406,162.260635 273.205750,162.224899 
	C273.266296,162.050735 273.617432,161.968582 274.025024,162.017258 
z"/>
<path fill="#59270A" opacity="1.000000" stroke="none" 
	d="
M303.487152,235.182281 
	C311.635101,240.746323 313.428925,248.896149 308.981720,258.613129 
	C304.987885,267.339478 295.606537,272.528473 287.537292,269.730927 
	C284.680206,268.740387 281.463593,266.246887 280.229279,263.593689 
	C276.587341,255.765213 277.901794,247.977036 283.160034,241.149216 
	C288.279297,234.501892 295.099518,232.612961 303.487152,235.182281 
z"/>
<path fill="#59270A" opacity="1.000000" stroke="none" 
	d="
M369.438782,236.201614 
	C375.946045,233.251297 382.155518,232.734894 387.555328,237.359482 
	C392.898621,241.935654 392.709991,248.203674 391.205627,254.415344 
	C388.933319,263.798187 381.262787,270.277069 372.625549,270.369781 
	C365.551727,270.445709 360.142273,265.838806 359.375671,258.845184 
	C358.357361,249.555023 361.098297,241.811295 369.438782,236.201614 
z"/>
<path fill="#552003" opacity="1.000000" stroke="none" 
	d="
M299.113831,133.007538 
	C297.547272,134.890945 295.980713,136.774338 293.962952,139.200241 
	C290.922424,139.376694 286.833588,139.815857 282.746887,139.796707 
	C278.294861,139.775848 276.894287,136.992371 276.922607,132.831711 
	C277.015503,119.186058 276.934174,105.539268 276.931702,91.892914 
	C276.929077,77.248032 276.939880,62.603146 277.428101,47.485168 
	C285.462097,47.004887 293.017883,47.139221 300.559357,46.871410 
	C302.072205,46.817684 303.530731,45.233883 305.014282,44.355564 
	C307.387573,44.263462 309.760864,44.171368 312.637268,44.583046 
	C315.015930,45.722725 316.888489,46.901505 318.767548,46.911934 
	C341.734161,47.039433 364.703308,47.138206 387.667877,46.886726 
	C392.832916,46.830162 394.135193,48.558949 394.095154,53.496586 
	C393.883209,79.624374 394.052582,105.755104 393.905640,131.883789 
	C393.890594,134.563019 392.652863,137.235382 391.646729,139.927917 
	C390.862640,139.937897 390.414276,139.930878 389.794189,139.783386 
	C389.094727,139.737640 388.567047,139.832367 387.578003,139.946365 
	C381.585724,140.089890 375.406708,141.602402 373.671600,133.617310 
	C373.607025,133.320114 372.852448,133.172852 372.237488,132.749329 
	C371.941345,132.198135 371.827148,131.853287 371.749969,131.124802 
	C371.009674,126.832619 368.937195,124.077675 364.962891,123.026070 
	C364.994202,123.007439 364.953583,123.067986 364.958038,122.708694 
	C362.148224,118.235107 358.573273,115.417885 352.980408,115.420891 
	C351.448212,114.870514 350.229767,114.405731 348.765717,113.757156 
	C348.121246,113.526161 347.722382,113.478951 347.159607,113.541084 
	C346.726837,113.719414 346.471313,113.686234 346.150146,113.244637 
	C345.062622,112.622856 344.054016,112.307335 342.998169,112.207214 
	C342.950958,112.422630 343.020233,112.858200 342.680420,112.768066 
	C341.924042,112.473289 341.507477,112.268646 341.102539,111.752213 
	C342.208160,110.185036 343.214844,108.838264 344.413849,107.692863 
	C347.096588,105.130127 351.580505,103.957390 351.095215,98.662430 
	C351.745056,97.573540 352.299103,96.765053 353.194794,95.834549 
	C353.833984,94.868790 354.131500,94.025047 354.407654,92.851196 
	C354.614502,90.682365 354.842773,88.843658 355.196960,86.568314 
	C355.198608,83.734886 355.074371,81.338089 355.070648,78.691666 
	C354.531189,76.881439 353.871185,75.320862 353.091980,73.446854 
	C349.877594,68.468315 345.907959,64.971184 340.216522,63.444725 
	C339.428345,63.167389 338.731934,63.096474 337.600769,62.969963 
	C335.173035,63.211315 333.180023,63.508259 330.907318,63.713745 
	C329.959137,63.943043 329.290649,64.263794 328.280670,64.653923 
	C324.598907,68.149902 321.258667,71.576508 317.605469,75.197754 
	C313.494873,86.274414 317.900269,97.916794 329.102722,107.084877 
	C329.110718,110.575325 327.559845,111.809654 324.533508,112.153786 
	C322.909393,112.338470 321.415985,113.672722 319.670837,114.651497 
	C319.316589,114.862617 319.155121,114.910469 318.599762,114.946121 
	C308.209717,117.005211 300.149750,124.545662 299.330200,132.715393 
	C299.321075,132.846359 299.113831,133.007538 299.113831,133.007538 
M297.959412,61.465153 
	C293.454407,66.019371 288.949402,70.573586 284.444397,75.127792 
	C290.296783,74.454620 307.026123,57.661095 307.547424,52.218700 
	C303.951477,55.659901 301.195770,58.297058 297.959412,61.465153 
M284.063446,58.316006 
	C283.645752,59.284599 283.228027,60.253193 282.810333,61.221786 
	C283.231812,61.473999 283.653290,61.726208 284.074768,61.978420 
	C287.621033,59.104282 291.276978,56.331757 293.511963,52.243198 
	C293.037201,51.739410 292.562469,51.235622 292.087738,50.731834 
	C289.570801,53.106312 287.053864,55.480785 284.063446,58.316006 
z"/>
<path fill="#482004" opacity="1.000000" stroke="none" 
	d="
M391.982513,139.910934 
	C392.652863,137.235382 393.890594,134.563019 393.905640,131.883789 
	C394.052582,105.755104 393.883209,79.624374 394.095154,53.496586 
	C394.135193,48.558949 392.832916,46.830162 387.667877,46.886726 
	C364.703308,47.138206 341.734161,47.039433 318.767548,46.911934 
	C316.888489,46.901505 315.015930,45.722725 313.063202,44.721191 
	C321.262238,44.235561 329.538269,44.029095 337.814636,44.013191 
	C356.218079,43.977833 374.621704,44.037868 393.598907,44.530159 
	C394.431335,45.960163 394.914185,46.918518 394.916351,47.877960 
	C394.983002,77.300056 395.040222,106.722435 394.900208,136.143829 
	C394.894165,137.404129 392.998108,138.655441 391.982513,139.910934 
z"/>
<path fill="#5A4427" opacity="1.000000" stroke="none" 
	d="
M391.646729,139.927917 
	C392.998108,138.655441 394.894165,137.404129 394.900208,136.143829 
	C395.040222,106.722435 394.983002,77.300056 394.916351,47.877960 
	C394.914185,46.918518 394.431335,45.960163 394.057495,44.612495 
	C397.363312,43.803757 396.603424,46.403381 396.616516,48.161015 
	C396.700378,59.449001 396.697601,70.737732 396.698059,82.026222 
	C396.698792,99.457054 396.682220,116.887894 396.666992,134.318726 
	C396.660675,141.524445 396.653534,141.505280 389.213318,141.544495 
	C385.731079,141.562851 382.249298,141.671539 377.984802,141.852478 
	C376.571899,141.956940 375.941498,141.948212 375.148193,141.609100 
	C374.130005,138.504379 373.274719,135.730042 372.419403,132.955704 
	C372.852448,133.172852 373.607025,133.320114 373.671600,133.617310 
	C375.406708,141.602402 381.585724,140.089890 387.898651,139.961487 
	C389.109100,139.946182 389.537537,139.935028 389.965942,139.923859 
	C390.414276,139.930878 390.862640,139.937897 391.646729,139.927917 
z"/>
<path fill="#482004" opacity="1.000000" stroke="none" 
	d="
M304.561035,44.221134 
	C303.530731,45.233883 302.072205,46.817684 300.559357,46.871410 
	C293.017883,47.139221 285.462097,47.004887 277.439148,47.018120 
	C277.005707,46.340824 277.044525,45.657478 277.078674,44.631996 
	C286.085236,44.222145 295.096497,44.154423 304.561035,44.221134 
z"/>
<path fill="#6B6A4E" opacity="1.000000" stroke="none" 
	d="
M375.311096,141.939484 
	C375.941498,141.948212 376.571899,141.956940 377.517517,141.966522 
	C377.964935,144.005676 378.097137,146.043961 378.147949,148.512604 
	C377.197998,149.200516 376.329407,149.458084 375.269470,149.343750 
	C375.155792,146.627731 375.233459,144.283615 375.311096,141.939484 
z"/>
<path fill="#5C2E11" opacity="1.000000" stroke="none" 
	d="
M218.713959,374.405029 
	C225.385345,373.486786 231.704788,372.754791 238.154678,372.007660 
	C237.873169,382.352509 225.428879,390.264740 217.475967,386.323059 
	C212.980362,384.094910 213.371643,378.914032 218.713959,374.405029 
z"/>
<path fill="#5A2B0F" opacity="1.000000" stroke="none" 
	d="
M434.029602,361.209534 
	C429.925476,361.208679 426.313873,361.208679 422.601349,361.208679 
	C424.329620,352.801788 432.584290,347.264618 440.969299,348.434692 
	C447.722229,349.376984 450.794495,353.347137 450.242706,361.210419 
	C445.048370,361.210419 439.785248,361.210419 434.029602,361.209534 
z"/>
<path fill="#BBE2C7" opacity="1.000000" stroke="none" 
	d="
M375.148193,141.609100 
	C375.233459,144.283615 375.155792,146.627731 374.931915,149.387573 
	C365.443542,149.664581 356.101349,149.525864 346.494171,148.710846 
	C346.208557,136.740387 346.187988,125.446220 346.262146,114.009911 
	C346.356934,113.867760 346.229065,113.550896 346.229065,113.550896 
	C346.471313,113.686234 346.726837,113.719414 347.385132,113.772064 
	C348.186890,113.909454 348.599121,113.925201 349.011353,113.940948 
	C350.229767,114.405731 351.448212,114.870514 353.227783,115.663605 
	C357.510498,118.350601 361.232025,120.709290 364.953583,123.067978 
	C364.953583,123.067986 364.994202,123.007439 365.047729,123.354340 
	C367.305176,126.303650 369.509033,128.906052 371.712921,131.508453 
	C371.827148,131.853287 371.941345,132.198135 372.237488,132.749329 
	C373.274719,135.730042 374.130005,138.504379 375.148193,141.609100 
z"/>
<path fill="#BCEBD0" opacity="1.000000" stroke="none" 
	d="
M301.885437,149.582321 
	C301.193604,149.628464 300.501740,149.674606 299.334137,149.302002 
	C298.676880,146.980591 297.976685,144.948471 298.413147,143.200089 
	C299.623260,138.352737 301.306824,133.623581 302.810974,128.864319 
	C302.818695,128.880920 302.813354,128.844635 303.139496,128.757294 
	C303.864777,127.925987 304.263947,127.182037 304.741638,126.201134 
	C305.154968,125.615555 305.489838,125.266922 306.193054,124.933380 
	C310.203583,122.685432 313.777069,120.301010 317.505524,118.190361 
	C322.069366,115.606766 324.030670,116.698402 324.096039,121.795128 
	C324.185608,128.780807 324.021881,135.770325 324.154633,142.754608 
	C324.226349,146.525620 322.777771,148.318085 318.884277,148.172882 
	C315.063538,148.030365 311.224640,147.994659 307.410736,148.211411 
	C305.549011,148.317245 303.725983,149.103867 301.885437,149.582321 
z"/>
<path fill="#B8D6BB" opacity="1.000000" stroke="none" 
	d="
M341.090881,112.063995 
	C341.507477,112.268646 341.924042,112.473289 342.760498,113.240494 
	C343.040405,125.804710 342.900391,137.806381 342.760376,149.808044 
	C338.067108,149.681946 333.373810,149.555862 328.381836,148.752197 
	C327.930908,137.036133 327.778687,125.997643 327.734070,114.629822 
	C329.187897,113.650276 330.486328,112.599724 331.890198,112.432190 
	C334.928467,112.069603 338.020721,112.159286 341.090881,112.063995 
z"/>
<path fill="#B3C2A8" opacity="1.000000" stroke="none" 
	d="
M302.344971,149.718521 
	C303.725983,149.103867 305.549011,148.317245 307.410736,148.211411 
	C311.224640,147.994659 315.063538,148.030365 318.884277,148.172882 
	C322.777771,148.318085 324.226349,146.525620 324.154633,142.754608 
	C324.021881,135.770325 324.185608,128.780807 324.096039,121.795128 
	C324.030670,116.698402 322.069366,115.606766 317.505524,118.190361 
	C313.777069,120.301010 310.203583,122.685432 306.329926,124.620056 
	C310.396851,121.180542 314.695282,118.069435 318.993683,114.958328 
	C319.155121,114.910469 319.316589,114.862617 320.026489,114.662819 
	C322.410522,114.656387 324.246124,114.801895 326.000854,115.413498 
	C325.928955,126.907814 325.937988,137.936020 325.947052,148.964233 
	C318.232849,149.261063 310.518677,149.557892 302.344971,149.718521 
z"/>
<path fill="#6B6A4E" opacity="1.000000" stroke="none" 
	d="
M343.098785,149.766846 
	C342.900391,137.806381 343.040405,125.804710 343.100311,113.330627 
	C343.020233,112.858200 342.950958,112.422630 343.244720,112.516106 
	C344.414795,113.123741 345.291077,113.637901 346.167389,114.152061 
	C346.187988,125.446220 346.208557,136.740387 346.144165,148.492737 
	C345.185181,149.209167 344.311188,149.467422 343.098785,149.766846 
z"/>
<path fill="#626346" opacity="1.000000" stroke="none" 
	d="
M326.281677,148.991669 
	C325.937988,137.936020 325.928955,126.907814 326.387207,115.392746 
	C327.111816,114.923637 327.369141,114.941399 327.626465,114.959152 
	C327.778687,125.997643 327.930908,137.036133 328.020447,148.539551 
	C327.510620,149.009354 327.063477,149.014236 326.281677,148.991669 
z"/>
<path fill="#B3C2A8" opacity="1.000000" stroke="none" 
	d="
M302.803284,128.847717 
	C301.306824,133.623581 299.623260,138.352737 298.413147,143.200089 
	C297.976685,144.948471 298.676880,146.980591 298.992584,149.233139 
	C295.967834,150.437042 295.604431,148.237381 295.992828,146.214417 
	C296.796814,142.026962 298.015808,137.919159 299.088989,133.393066 
	C299.113831,133.007538 299.321075,132.846359 299.602783,132.535126 
	C300.857422,131.098495 301.830353,129.973099 302.803284,128.847717 
z"/>
<path fill="#BCDCC0" opacity="1.000000" stroke="none" 
	d="
M317.918457,75.003113 
	C321.258667,71.576508 324.598907,68.149902 328.561462,64.747543 
	C329.851562,64.449593 330.519287,64.127396 331.187042,63.805199 
	C333.180023,63.508259 335.173035,63.211315 337.840179,63.170109 
	C339.112305,63.500950 339.710297,63.576054 340.308258,63.651154 
	C345.907959,64.971184 349.877594,68.468315 353.031128,73.802383 
	C353.709686,75.961334 354.329926,77.451317 354.950134,78.941299 
	C355.074371,81.338089 355.198608,83.734886 354.942566,86.729431 
	C353.537170,87.849075 352.512054,88.370964 351.440826,88.533905 
	C345.418457,83.623611 339.665924,78.905731 339.289093,70.597961 
	C332.345306,74.346710 326.134216,77.699883 319.614136,80.942856 
	C318.842896,78.889473 318.380676,76.946297 317.918457,75.003113 
z"/>
<path fill="#A79C7B" opacity="1.000000" stroke="none" 
	d="
M351.486969,88.892853 
	C352.512054,88.370964 353.537170,87.849075 354.816650,87.166061 
	C354.842773,88.843658 354.614502,90.682365 354.130737,93.033875 
	C353.534485,94.349968 353.193817,95.153259 352.853149,95.956558 
	C352.299103,96.765053 351.745056,97.573540 350.803986,98.834488 
	C344.934631,106.406067 338.238861,110.023529 329.125732,106.664917 
	C317.900269,97.916794 313.494873,86.274414 317.605469,75.197754 
	C318.380676,76.946297 318.842896,78.889473 319.381592,81.249161 
	C318.240753,89.707008 323.370026,100.807571 330.665955,103.667099 
	C333.814941,104.901283 338.463684,104.829010 341.468292,103.368889 
	C347.131134,100.616928 350.646393,95.453606 351.486969,88.892853 
z"/>
<path fill="#A79C7B" opacity="1.000000" stroke="none" 
	d="
M298.199707,61.199684 
	C301.195770,58.297058 303.951477,55.659901 307.547424,52.218700 
	C307.026123,57.661095 290.296783,74.454620 284.444397,75.127792 
	C288.949402,70.573586 293.454407,66.019371 298.199707,61.199684 
z"/>
<path fill="#523217" opacity="1.000000" stroke="none" 
	d="
M329.102722,107.084877 
	C338.238861,110.023529 344.934631,106.406067 350.708191,99.114891 
	C351.580505,103.957390 347.096588,105.130127 344.413849,107.692863 
	C343.214844,108.838264 342.208160,110.185036 341.102539,111.752213 
	C338.020721,112.159286 334.928467,112.069603 331.890198,112.432190 
	C330.486328,112.599724 329.187897,113.650276 327.734070,114.629822 
	C327.369141,114.941399 327.111816,114.923637 326.468140,114.926643 
	C324.246124,114.801895 322.410522,114.656387 320.219238,114.499550 
	C321.415985,113.672722 322.909393,112.338470 324.533508,112.153786 
	C327.559845,111.809654 329.110718,110.575325 329.102722,107.084877 
z"/>
<path fill="#A5987C" opacity="1.000000" stroke="none" 
	d="
M284.300171,58.085632 
	C287.053864,55.480785 289.570801,53.106312 292.087738,50.731834 
	C292.562469,51.235622 293.037201,51.739410 293.511963,52.243198 
	C291.276978,56.331757 287.621033,59.104282 284.074768,61.978420 
	C283.653290,61.726208 283.231812,61.473999 282.810333,61.221786 
	C283.228027,60.253193 283.645752,59.284599 284.300171,58.085632 
z"/>
<path fill="#5A4427" opacity="1.000000" stroke="none" 
	d="
M302.810974,128.864319 
	C301.830353,129.973099 300.857422,131.098495 299.611908,132.404160 
	C300.149750,124.545662 308.209717,117.005211 318.599762,114.946121 
	C314.695282,118.069435 310.396851,121.180542 305.961578,124.604973 
	C305.489838,125.266922 305.154968,125.615555 304.436340,126.316330 
	C303.639526,127.393875 303.226440,128.119263 302.813354,128.844635 
	C302.813354,128.844635 302.818695,128.880920 302.810974,128.864319 
z"/>
<path fill="#5A4427" opacity="1.000000" stroke="none" 
	d="
M364.958038,122.708687 
	C361.232025,120.709290 357.510498,118.350601 353.541565,115.749191 
	C358.573273,115.417885 362.148224,118.235107 364.958038,122.708687 
z"/>
<path fill="#5A4427" opacity="1.000000" stroke="none" 
	d="
M371.749969,131.124802 
	C369.509033,128.906052 367.305176,126.303650 365.016418,123.372971 
	C368.937195,124.077675 371.009674,126.832619 371.749969,131.124802 
z"/>
<path fill="#A79C7B" opacity="1.000000" stroke="none" 
	d="
M355.070648,78.691666 
	C354.329926,77.451317 353.709686,75.961334 353.150330,74.115814 
	C353.871185,75.320862 354.531189,76.881439 355.070648,78.691666 
z"/>
<path fill="#523217" opacity="1.000000" stroke="none" 
	d="
M346.262146,114.009911 
	C345.291077,113.637901 344.414795,113.123741 343.291931,112.300690 
	C344.054016,112.307335 345.062622,112.622856 346.150146,113.244637 
	C346.229065,113.550896 346.356934,113.867760 346.262146,114.009911 
z"/>
<path fill="#A79C7B" opacity="1.000000" stroke="none" 
	d="
M340.216522,63.444725 
	C339.710297,63.576054 339.112305,63.500950 338.274902,63.225700 
	C338.731934,63.096474 339.428345,63.167389 340.216522,63.444725 
z"/>
<path fill="#A79C7B" opacity="1.000000" stroke="none" 
	d="
M330.907318,63.713745 
	C330.519287,64.127396 329.851562,64.449593 328.903015,64.678177 
	C329.290649,64.263794 329.959137,63.943043 330.907318,63.713745 
z"/>
<path fill="#523217" opacity="1.000000" stroke="none" 
	d="
M353.194794,95.834534 
	C353.193817,95.153259 353.534485,94.349968 354.152100,93.363983 
	C354.131500,94.025047 353.833984,94.868790 353.194794,95.834534 
z"/>
<path fill="#482004" opacity="1.000000" stroke="none" 
	d="
M389.794189,139.783386 
	C389.537537,139.935028 389.109100,139.946182 388.360046,139.942230 
	C388.567047,139.832367 389.094727,139.737640 389.794189,139.783386 
z"/>
<path fill="#5A4427" opacity="1.000000" stroke="none" 
	d="
M348.765717,113.757156 
	C348.599121,113.925201 348.186890,113.909454 347.549103,113.662720 
	C347.722382,113.478951 348.121246,113.526161 348.765717,113.757156 
z"/>
<path fill="#B3C2A8" opacity="1.000000" stroke="none" 
	d="
M303.139496,128.757294 
	C303.226440,128.119263 303.639526,127.393875 304.357849,126.553284 
	C304.263947,127.182037 303.864777,127.925987 303.139496,128.757294 
z"/>
<path fill="#55270B" opacity="1.000000" stroke="none" 
	d="
M351.440826,88.533905 
	C350.646393,95.453606 347.131134,100.616928 341.468292,103.368889 
	C338.463684,104.829010 333.814941,104.901283 330.665955,103.667099 
	C323.370026,100.807571 318.240753,89.707008 319.690613,81.359367 
	C326.134216,77.699883 332.345306,74.346710 339.289093,70.597961 
	C339.665924,78.905731 345.418457,83.623611 351.440826,88.533905 
z"/>
</svg>