<svg width="1000" height="361" viewBox="0 0 1000 361" fill="none" xmlns="http://www.w3.org/2000/svg">
<path d="M40.3529 356.745C40.3529 356.745 -23.6724 318.35 9.57169 209.787C42.8154 101.225 25.9067 0.946311 195.656 5.12623C365.404 9.30632 391.155 67.5497 480.74 67.3171C570.326 67.0842 639.074 61.004 717.748 66.6649C816.249 73.7523 924.376 130.066 951.473 200.638C978.57 271.211 942.055 355.492 942.055 355.492L40.3529 356.745Z" fill="#EAE4C7" fill-opacity="0.5"/>
<path d="M862.766 246.282L861.746 255.647C861.746 255.647 865.513 256.119 867.161 256.591C868.808 257.063 873.464 247.863 873.464 247.863C873.464 247.863 868.495 245.73 868.259 245.73C868.024 245.731 862.766 246.282 862.766 246.282Z" fill="#F9B5B2"/>
<path d="M916.403 289.595L921.023 355.682H918.713L911.397 290.311L916.403 289.595Z" fill="#07085B"/>
<path d="M867.874 289.595L863.254 355.682H865.564L872.88 290.311L867.874 289.595Z" fill="#07085B"/>
<path d="M936.566 218.099C936.566 218.099 899.633 217.003 897.243 217.174C894.853 217.345 892.643 225.036 892.643 225.036C892.643 225.036 881.854 265.093 882.069 266.195C882.284 267.297 872.005 293.11 872.005 293.11C872.005 293.11 880.872 292.874 881.265 293.11C881.657 293.346 915.556 290.198 916.027 289.883C916.498 289.568 918.225 283.666 918.303 283.351C918.381 283.036 920.971 260.056 920.971 260.056L922.305 247.386C922.305 247.386 927.406 236.516 927.484 236.482C927.563 236.447 932.271 226.925 932.585 226.453C932.899 225.981 937.764 220.708 937.921 220.236C938.078 219.764 936.566 218.099 936.566 218.099Z" fill="#57ACE5"/>
<path opacity="0.3" d="M936.566 218.099C936.566 218.099 923.833 217.722 912.836 217.444C917.11 219.961 919.506 227.001 917.727 239.525C916.216 250.167 914.536 261.717 907.84 275.568C904.391 282.702 889.541 278.706 877.37 279.412C874.747 286.223 872.005 293.11 872.005 293.11C872.005 293.11 880.872 292.874 881.265 293.11C881.657 293.346 915.556 290.198 916.027 289.883C916.498 289.568 918.225 283.666 918.303 283.351C918.381 283.036 920.971 260.057 920.971 260.057L922.305 247.387C922.305 247.387 927.406 236.516 927.484 236.482C927.563 236.448 932.271 226.925 932.585 226.453C932.899 225.981 937.764 220.708 937.921 220.236C938.078 219.764 936.566 218.099 936.566 218.099Z" fill="#57ACE5"/>
<path d="M865.258 294.52L865.257 294.519C865.179 293.255 866.131 292.165 867.39 292.08C871.337 291.812 879.872 291.201 888.65 290.367C905.477 288.77 911.56 287.462 913.738 286.778C914.489 286.542 915.067 285.931 915.259 285.166C915.85 282.812 916.196 277.926 916.486 273.839C917.584 258.33 919.397 232.756 935.319 218.715C936.312 217.839 937.842 217.995 938.648 219.047C939.383 220.004 939.257 221.373 938.351 222.169C923.846 234.917 922.18 258.422 921.065 274.166C920.429 283.14 920.036 287.545 918.078 289.595C917.133 290.583 915.375 292.423 889.791 294.883C880.715 295.755 871.781 296.396 867.7 296.673C866.431 296.759 865.337 295.793 865.258 294.52Z" fill="#026EAF"/>
<path d="M866.362 261.943C866.362 261.943 867.373 226.372 869.25 222.279C871.126 218.187 877.767 217.4 877.767 217.4C877.767 217.4 895.078 214.826 899.576 219.082C899.913 219.401 907.739 229.795 906.487 279.099C906.487 279.099 891.621 270.914 866.362 266.717V261.943Z" fill="#02CCC0"/>
<g opacity="0.3">
<path d="M564.111 166.134H628.879L658.628 100.363H593.86L564.111 166.134Z" fill="white"/>
<path d="M668.504 100.363L638.755 166.134H703.523L733.271 100.363H668.504Z" fill="white"/>
<path d="M531.382 238.495H596.15L625.898 172.725H561.131L531.382 238.495Z" fill="white"/>
<path d="M606.025 238.495H670.793L700.542 172.725H635.774L606.025 238.495Z" fill="white"/>
</g>
<path d="M449.76 125.747H441.364V159.81H449.76V125.747Z" fill="#142666"/>
<path d="M523.466 159.409V152.718H489.5V159.409H523.466Z" fill="#70C0FD"/>
<path d="M527.984 152.695V146.004H494.019V152.695H527.984Z" fill="#142666"/>
<path d="M520.955 146.15V139.458H486.99V146.15H520.955Z" fill="white"/>
<path d="M459.469 112.025H450.884V159.306H459.469V112.025Z" fill="white"/>
<path d="M440.366 117.237H432.459V159.306H440.366V117.237Z" fill="#70C0FD"/>
<path d="M484.984 155.434L477.878 158.914L459.475 121.109L466.581 117.63L484.984 155.434Z" fill="#70C0FD"/>
<path d="M561.996 159.068H426.184V162.916H561.996V159.068Z" fill="#4188E4"/>
<path d="M757.876 132.39H750.419V162.645H757.876V132.39Z" fill="#142666"/>
<path d="M799.365 162.289V156.346H769.197V162.289H799.365Z" fill="white"/>
<path d="M803.379 156.325V150.382H773.211V156.325H803.379Z" fill="#97CEF7"/>
<path d="M799.365 150.512V144.568H769.197V150.512H799.365Z" fill="#142666"/>
<path d="M766.5 120.203H758.874V162.198H766.5V120.203Z" fill="#70C0FD"/>
<path d="M749.533 124.832H742.51V162.198H749.533V124.832Z" fill="white"/>
<path d="M823.901 132.39H816.443V162.645H823.901V132.39Z" fill="#142666"/>
<path d="M832.525 120.203H824.899V162.198H832.525V120.203Z" fill="#70C0FD"/>
<path d="M815.558 124.832H808.534V162.198H815.558V124.832Z" fill="white"/>
<path d="M855.187 158.759L848.875 161.849L832.529 128.271L838.841 125.181L855.187 158.759Z" fill="white"/>
<path d="M857.564 161.986H736.936V165.404H857.564V161.986Z" fill="#4188E4"/>
<path d="M855.477 355.858L873.484 347.508C873.749 347.385 873.865 347.069 873.742 346.803L873.281 345.804C873.159 345.537 872.844 345.421 872.578 345.544L854.571 353.894C854.306 354.017 854.19 354.333 854.313 354.599L854.774 355.599C854.896 355.865 855.211 355.981 855.477 355.858Z" fill="white"/>
<path d="M869.44 339.758L872.587 344.928C872.975 345.566 872.89 346.347 872.41 346.57L855.694 354.321C855.26 354.522 854.702 354.443 854.233 354.024C853.751 353.596 853.331 352.808 853.578 351.373C854.062 348.554 858.576 345.793 860.205 342.88C860.263 342.775 860.349 342.692 860.457 342.643L868.078 339.109C868.513 338.907 869.09 339.182 869.44 339.758Z" fill="#02CCC0"/>
<path d="M862.936 345.342C863.022 345.21 862.97 344.98 862.826 344.853C862.153 344.257 860.287 342.911 858.373 344.253C858.262 344.331 858.256 344.533 858.355 344.694L858.358 344.699C858.454 344.854 858.613 344.912 858.719 344.837C860.439 343.641 862.051 344.842 862.606 345.347C862.724 345.454 862.865 345.453 862.936 345.342Z" fill="white"/>
<path d="M861.525 346.85C861.61 346.718 861.558 346.488 861.414 346.361C860.741 345.765 858.875 344.419 856.961 345.761C856.85 345.839 856.844 346.041 856.943 346.202L856.946 346.207C857.042 346.362 857.2 346.42 857.308 346.345C859.027 345.149 860.639 346.35 861.194 346.855C861.312 346.962 861.453 346.96 861.525 346.85Z" fill="white"/>
<path d="M860.212 348.255C860.297 348.122 860.245 347.892 860.102 347.765C859.429 347.169 857.563 345.823 855.648 347.165C855.538 347.243 855.532 347.446 855.631 347.606L855.634 347.611C855.73 347.766 855.888 347.824 855.995 347.749C857.714 346.554 859.327 347.755 859.882 348.259C860 348.366 860.141 348.365 860.212 348.255Z" fill="white"/>
<path opacity="0.3" d="M867.851 347.803C867.514 343.992 868.911 342.448 870.079 341.821C870.342 341.68 870.672 341.783 870.832 342.045L872.587 344.929C872.975 345.566 872.891 346.347 872.41 346.571L868.672 348.304C868.307 348.473 867.887 348.213 867.851 347.803Z" fill="#E87B50"/>
<path d="M824.102 356.243L843.227 350.955C843.509 350.877 843.675 350.585 843.597 350.302L843.305 349.241C843.227 348.958 842.936 348.792 842.654 348.87L823.529 354.157C823.247 354.235 823.081 354.528 823.159 354.811L823.451 355.872C823.528 356.155 823.82 356.321 824.102 356.243Z" fill="white"/>
<path d="M840.5 342.647L842.762 348.263C843.041 348.956 842.83 349.713 842.32 349.854L824.566 354.762C824.105 354.89 823.568 354.72 823.173 354.23C822.768 353.728 822.482 352.882 822.959 351.507C823.895 348.806 828.798 346.821 830.88 344.214C830.955 344.12 831.053 344.052 831.167 344.021L839.262 341.783C839.724 341.655 840.248 342.021 840.5 342.647Z" fill="#02CCC0"/>
<path d="M833.174 347.091C833.28 346.974 833.265 346.739 833.144 346.59C832.578 345.892 830.956 344.258 828.848 345.268C828.727 345.327 828.688 345.526 828.759 345.7L828.762 345.706C828.831 345.875 828.978 345.957 829.096 345.901C830.987 345.003 832.382 346.453 832.847 347.041C832.946 347.166 833.085 347.188 833.174 347.091Z" fill="white"/>
<path d="M831.535 348.347C831.641 348.23 831.626 347.995 831.506 347.846C830.939 347.148 829.317 345.514 827.209 346.524C827.088 346.583 827.049 346.781 827.121 346.956L827.123 346.962C827.192 347.13 827.339 347.213 827.457 347.157C829.348 346.259 830.743 347.708 831.208 348.297C831.307 348.422 831.447 348.444 831.535 348.347Z" fill="white"/>
<path d="M830.011 349.517C830.118 349.401 830.104 349.165 829.982 349.017C829.416 348.319 827.794 346.685 825.686 347.695C825.564 347.753 825.526 347.952 825.597 348.127L825.6 348.132C825.669 348.301 825.816 348.384 825.934 348.328C827.825 347.43 829.22 348.879 829.685 349.467C829.784 349.593 829.923 349.615 830.011 349.517Z" fill="white"/>
<path opacity="0.3" d="M837.622 350.324C837.91 346.509 839.54 345.214 840.794 344.787C841.077 344.691 841.386 344.847 841.501 345.131L842.762 348.264C843.041 348.956 842.831 349.713 842.32 349.854L838.35 350.952C837.963 351.059 837.591 350.734 837.622 350.324Z" fill="#E87B50"/>
<path d="M870.398 247.864C870.721 245.041 871.006 242.452 871.006 242.111C871.006 241.324 868.871 222.279 868.871 222.279C868.871 222.279 863.611 233.77 862.36 246.675C863.958 247.482 866.568 248.301 870.398 247.864Z" fill="#00AA99"/>
<path d="M869.238 255.517L869.488 255.647C869.488 255.647 869.512 255.452 869.552 255.111C869.447 255.249 869.342 255.385 869.238 255.517Z" fill="#F4A640"/>
<path d="M869.489 266.717C869.489 266.717 826.382 271.543 824.08 286.234C821.778 300.924 830.881 344.214 830.881 344.214C830.881 344.214 838.1 343.735 840.821 342.056C840.821 342.056 838.1 293.789 842.076 290.641C846.052 287.493 867.815 279.938 868.233 279.099C868.652 278.259 869.489 266.717 869.489 266.717Z" fill="#202121"/>
<path d="M869.489 266.717C869.489 266.717 840.82 282.456 840.82 291.69C840.82 300.924 851.911 335.341 860.072 342.895C860.072 342.895 865.094 342.056 869.489 339.748L859.653 295.258C859.653 295.258 903.388 289.382 906.108 279.098L895.354 267.766L869.489 266.717Z" fill="#333333"/>
<path d="M775.428 266.717H772.185V355.592H775.428V266.717Z" fill="#183658"/>
<path d="M806.031 266.717H802.788V355.592H806.031V266.717Z" fill="#183658"/>
<path d="M898.598 266.717H895.354V355.592H898.598V266.717Z" fill="#183658"/>
<path d="M929.202 266.717H925.959V355.592H929.202V266.717Z" fill="#183658"/>
<path d="M936.906 267.766H764.929C764.139 267.766 763.5 267.126 763.5 266.336V263.529C763.5 262.74 764.139 262.1 764.929 262.1H936.906C937.695 262.1 938.334 262.74 938.334 263.529V266.336C938.334 267.126 937.695 267.766 936.906 267.766Z" fill="#FEE4CB"/>
<path d="M887.276 210.336V219.218C887.276 219.712 886.994 220.162 886.549 220.371C885.195 221.007 882.167 222.05 879.34 220.388C878.958 220.164 878.733 219.743 878.733 219.299V211.276L887.276 210.336Z" fill="#FFC0BB"/>
<path d="M887.275 215.093V210.336L878.732 211.276V215.312C880.335 215.799 883.318 216.285 887.275 215.093Z" fill="#F99893"/>
<path d="M873.278 200.779C873.74 202.187 873.205 203.629 872.082 204C870.958 204.371 869.673 203.531 869.21 202.123C868.748 200.714 869.283 199.272 870.406 198.901C871.53 198.53 872.815 199.371 873.278 200.779Z" fill="#F99893"/>
<path d="M873.119 208.818C872.819 208.203 872.575 207.557 872.39 206.885C871.857 205.078 871.656 203.185 871.609 201.543C871.599 201.19 871.569 200.839 871.533 200.489C871.384 199.073 871.491 197.59 871.924 196.087C873.315 191.252 877.793 187.846 882.811 187.82C889.571 187.784 894.765 193.491 894.314 200.075C895.054 199.726 895.862 199.69 896.546 200.055C897.858 200.755 898.215 202.656 897.343 204.301C896.47 205.945 894.699 206.711 893.387 206.011C893.205 205.914 893.043 205.792 892.898 205.652C891.945 211.214 887.071 215.222 881.589 214.752C878.907 214.522 876.552 213.261 874.843 211.372C874.728 211.261 874.608 211.132 874.482 210.983C873.932 210.328 873.485 209.594 873.119 208.818Z" fill="#FFC0BB"/>
<path d="M884.003 200.36C883.956 200.911 884.363 201.396 884.912 201.443C885.461 201.49 885.945 201.082 885.992 200.531C886.039 199.98 885.631 199.495 885.082 199.448C884.533 199.401 884.049 199.809 884.003 200.36Z" fill="#333333"/>
<path d="M875.414 200.189C875.367 200.74 875.774 201.225 876.324 201.272C876.873 201.319 877.356 200.911 877.403 200.36C877.45 199.809 877.043 199.324 876.493 199.277C875.944 199.23 875.461 199.638 875.414 200.189Z" fill="#333333"/>
<path d="M882.971 198.278C883.475 198.12 883.954 197.998 884.43 197.929C884.905 197.859 885.372 197.851 885.826 197.914C886.278 197.983 886.731 198.09 887.162 198.301L887.329 198.369C887.385 198.393 887.435 198.428 887.489 198.454L887.818 198.627C888.039 198.746 888.243 198.895 888.487 199.015C888.361 198.785 888.216 198.558 888.046 198.351C887.856 198.166 887.683 197.948 887.449 197.805C887.016 197.468 886.471 197.27 885.92 197.191C885.366 197.115 884.796 197.185 884.286 197.376C883.779 197.572 883.31 197.864 882.971 198.278Z" fill="#333333"/>
<path d="M719.974 289.595L724.595 355.682H722.284L714.969 290.311L719.974 289.595Z" fill="#07085B"/>
<path d="M671.446 289.595L666.825 355.682H669.135L676.451 290.311L671.446 289.595Z" fill="#07085B"/>
<path d="M740.137 218.099C740.137 218.099 703.205 217.003 700.814 217.174C698.424 217.345 696.214 225.036 696.214 225.036C696.214 225.036 685.426 265.093 685.641 266.195C685.856 267.297 675.576 293.11 675.576 293.11C675.576 293.11 684.443 292.874 684.836 293.11C685.228 293.346 719.128 290.198 719.599 289.883C720.07 289.568 721.796 283.666 721.874 283.351C721.953 283.036 724.542 260.056 724.542 260.056L725.876 247.386C725.876 247.386 730.977 236.516 731.055 236.482C731.134 236.447 735.842 226.925 736.156 226.453C736.47 225.981 741.335 220.708 741.492 220.236C741.649 219.764 740.137 218.099 740.137 218.099Z" fill="#57ACE5"/>
<path opacity="0.3" d="M740.137 218.099C740.137 218.099 727.404 217.722 716.407 217.444C720.681 219.961 723.077 227.001 721.299 239.525C719.787 250.167 718.108 261.717 711.412 275.568C707.963 282.702 693.113 278.706 680.941 279.412C678.319 286.223 675.576 293.11 675.576 293.11C675.576 293.11 684.443 292.874 684.836 293.11C685.228 293.346 719.128 290.198 719.599 289.883C720.07 289.568 721.796 283.666 721.874 283.351C721.953 283.036 724.542 260.057 724.542 260.057L725.876 247.387C725.876 247.387 730.977 236.516 731.055 236.482C731.134 236.448 735.842 226.925 736.156 226.453C736.47 225.981 741.335 220.708 741.492 220.236C741.649 219.764 740.137 218.099 740.137 218.099Z" fill="#57ACE5"/>
<path d="M668.829 294.52L668.829 294.519C668.75 293.255 669.702 292.165 670.962 292.08C674.908 291.812 683.443 291.201 692.221 290.367C709.048 288.77 715.132 287.462 717.309 286.778C718.06 286.542 718.638 285.931 718.831 285.166C719.421 282.812 719.767 277.926 720.057 273.839C721.156 258.33 722.968 232.756 738.89 218.715C739.883 217.839 741.413 217.995 742.22 219.047C742.954 220.004 742.828 221.373 741.923 222.169C727.417 234.917 725.751 258.422 724.636 274.166C724 283.14 723.607 287.545 721.649 289.595C720.704 290.583 718.946 292.423 693.362 294.883C684.286 295.755 675.352 296.396 671.271 296.673C670.002 296.759 668.908 295.793 668.829 294.52Z" fill="#026EAF"/>
<path d="M878.952 198.141C878.641 197.704 878.193 197.38 877.701 197.15C877.206 196.924 876.642 196.815 876.084 196.853C875.529 196.893 874.971 197.053 874.516 197.359C874.273 197.486 874.085 197.692 873.883 197.863C873.7 198.059 873.54 198.275 873.397 198.495C873.65 198.393 873.863 198.258 874.092 198.154L874.431 198.005C874.488 197.982 874.54 197.951 874.597 197.931L874.769 197.874C875.212 197.694 875.672 197.618 876.127 197.581C876.585 197.549 877.05 197.589 877.519 197.691C877.99 197.793 878.459 197.948 878.952 198.141Z" fill="#333333"/>
<path d="M880.829 199.169C880.42 199.665 880.057 200.194 879.719 200.739C879.38 201.284 879.072 201.849 878.81 202.444C878.686 202.745 878.569 203.051 878.5 203.389C878.486 203.475 878.475 203.563 878.473 203.657C878.472 203.704 878.478 203.756 878.481 203.805C878.495 203.86 878.5 203.912 878.53 203.97C878.546 203.998 878.562 204.027 878.579 204.054L878.623 204.104C878.652 204.136 878.68 204.171 878.711 204.2C878.774 204.258 878.835 204.318 878.901 204.368C879.16 204.58 879.442 204.744 879.729 204.892C880.018 205.036 880.313 205.165 880.62 205.261C880.086 204.91 879.547 204.561 879.106 204.138C879.05 204.086 879.003 204.029 878.953 203.974L878.885 203.889L878.852 203.847C878.851 203.839 878.848 203.833 878.845 203.826C878.816 203.76 878.832 203.6 878.866 203.464C878.935 203.178 879.047 202.885 879.173 202.6C879.417 202.024 879.705 201.459 879.986 200.889C880.271 200.321 880.558 199.752 880.829 199.169Z" fill="#F99893"/>
<path d="M891.499 185.48C891.499 185.48 888.349 182.545 880.971 182.787C873.593 183.029 872.065 186.966 871.467 192.636L871.456 198.87C871.456 198.87 873.66 197.431 876.329 191.86C876.329 191.86 880.3 196.772 882.114 196.257C883.928 195.743 881.562 192.22 881.562 192.22C881.562 192.22 889.363 200.013 894.311 200.147C894.311 200.147 897.569 191.405 893.996 188.083C893.996 188.083 896.76 188.302 896.924 187.742C897.089 187.183 895.648 186.296 892.977 186.536C892.977 186.536 894.995 182.752 893.949 182.321C892.902 181.89 891.499 185.48 891.499 185.48Z" fill="#333333"/>
<path d="M877.525 207.343C877.845 208.556 879.279 209.462 880.991 209.446C882.703 209.429 884.119 208.496 884.416 207.277L877.525 207.343Z" fill="white"/>
<path d="M333.142 250.911H116.546C114.179 250.911 112.261 248.991 112.261 246.622V115.041C112.261 112.672 114.179 110.752 116.546 110.752H335.191C336.427 110.752 337.428 111.754 337.428 112.99V246.622C337.428 248.991 335.509 250.911 333.142 250.911Z" fill="#09083C"/>
<path d="M332.491 245.523H117.085C116.602 245.523 116.211 245.132 116.211 244.649V117.013C116.211 116.53 116.602 116.139 117.085 116.139H332.491C332.973 116.139 333.365 116.53 333.365 117.013V244.649C333.365 245.132 332.973 245.523 332.491 245.523Z" fill="#70C0FD"/>
<path opacity="0.5" d="M333.365 131.544V117.634C333.365 116.808 332.808 116.139 332.122 116.139H117.454C116.768 116.139 116.211 116.808 116.211 117.634V205.119L333.365 131.544Z" fill="#97CEF7"/>
<path d="M116.497 176.44L116.519 178.212L116.719 182.619L108.052 181.477L107.107 180.192L107.031 176.843L106.746 173.707H112.508L116.497 176.44Z" fill="#FFC0BB"/>
<path d="M124.488 283.906C124.488 283.906 124.92 285.857 124.488 288.35C124.055 290.843 112.813 350.14 112.813 350.14L118.747 351.008C118.747 351.008 138.107 295.938 139.188 292.253C140.269 288.567 141.458 283.364 137.783 279.353C134.108 275.342 124.488 283.906 124.488 283.906Z" fill="#FFC0BB"/>
<path d="M127.611 351.855L120.512 343.281L113.414 346.233L115.192 348.693L122.924 352.585C122.924 352.585 126.229 353.249 126.4 353.202C126.571 353.155 127.611 351.855 127.611 351.855Z" fill="#FFC0BB"/>
<path d="M127.61 351.854L129.149 353.786C129.866 354.669 128.988 355.944 127.911 355.585L113.015 350.629C112.49 350.454 112.205 349.886 112.379 349.359L113.414 346.232C122.286 352.7 126.031 352.877 127.61 351.854Z" fill="#07085B"/>
<path d="M103.059 152.642C103.059 152.642 99.3515 150.209 95.1331 152.642C90.9147 155.075 90.9147 163.281 92.5765 165.245C94.2383 167.209 92.4913 169.867 95.8149 172.431C99.1385 174.995 104.43 175.936 107.452 172.941C110.473 169.946 108.257 163.264 108.257 163.264L103.059 152.642Z" fill="#07085B"/>
<path d="M117.593 352.261L109.437 347.161L102.353 351.408L104.812 353.181L113.373 354.433C113.373 354.433 116.719 354.02 116.866 353.921C117.014 353.822 117.593 352.261 117.593 352.261Z" fill="#FFC0BB"/>
<path d="M97.918 278.283C97.918 278.283 99.0857 306.54 99.1937 311.419C99.3017 316.297 101.788 352.504 102.869 355.647L108.922 355.214C108.922 355.214 113.051 285.113 111.754 278.283C110.457 271.454 97.918 278.283 97.918 278.283Z" fill="#FFC0BB"/>
<path d="M84.9446 255.203C82.8591 254.773 82.3387 256.121 80.23 255.681L80.7253 258.942C80.4423 259.577 79.8096 261.271 79.8096 261.271C77.4608 268.096 77.5903 267.362 77.8237 267.488C78.0573 267.615 79.8217 265.091 80.0221 265.325C80.2225 265.56 79.0123 269.622 79.3721 269.514C79.7319 269.407 81.3039 265.794 81.5074 265.93C81.711 266.065 80.4862 269.967 81.0164 270.104C81.5467 270.24 82.7453 265.92 83.1225 266.2C83.4994 266.481 82.1598 270.875 82.6632 270.922C83.0866 270.96 84.7046 266.081 85.2087 264.528C85.2737 264.327 85.5358 264.282 85.6673 264.446C87.6914 266.982 87.996 267.059 88.2225 266.773C88.3837 266.569 87.3421 263.81 86.5141 261.172L85.4141 257.958L84.9446 255.203Z" fill="#FFC0BB"/>
<path d="M117.593 352.26L119.659 353.607C120.617 354.219 120.184 355.706 119.049 355.706H103.355C102.801 355.706 102.353 355.256 102.353 354.701V351.407C112.805 354.745 116.414 353.729 117.593 352.26Z" fill="#07085B"/>
<path d="M167.839 179.93C167.88 180.127 168.122 180.202 168.263 180.06C169.362 178.963 172.843 175.531 173.185 175.748C173.592 176.006 170.556 179.148 170.755 179.55C170.953 179.951 173.837 176.811 174.227 177.157C174.618 177.503 171.893 180.278 172.007 180.482C172.12 180.685 175.015 178.307 175.366 178.372C175.717 178.438 172.936 181.354 173.004 181.64C173.072 181.926 175.659 180.554 175.802 180.763C175.946 180.972 176.076 181.087 171.135 185.85L169.109 187.642L166.668 188.21L164.945 185.732C164.945 185.732 166.349 176.998 166.68 176.847C166.995 176.703 167.22 176.901 167.839 179.93Z" fill="#FFC0BB"/>
<path d="M101.921 278.283L106.943 296.922C118.54 296.909 135.842 295.832 144.437 290.086C144.437 290.086 133.201 237.717 125.742 224.6L100.124 223.19C100.124 223.19 82.3593 248.008 95.3304 296.573C95.3304 296.573 97.5482 296.736 101.088 296.84L101.921 278.283Z" fill="#09083C"/>
<path d="M123.797 162.495C123.267 163.939 123.771 165.454 124.923 165.88C126.075 166.305 127.438 165.479 127.968 164.035C128.498 162.59 127.994 161.075 126.842 160.65C125.69 160.225 124.327 161.051 123.797 162.495Z" fill="#F99893"/>
<path d="M106.653 172.913C106.653 172.913 106.882 174.692 107.032 176.843C108.969 178.415 111.474 179.219 114.084 178.881C114.943 178.77 115.758 178.54 116.519 178.212C116.459 176.809 116.48 175.508 116.696 174.885C117.292 173.172 106.653 172.913 106.653 172.913Z" fill="#F99893"/>
<path d="M125.081 181.974L149.351 200.408L164.891 184.425C164.891 184.425 169.539 188.021 169.539 187.954C169.539 187.888 154.929 210.797 151.344 211.996C147.758 213.195 124.619 197.024 124.619 197.024L125.081 181.974Z" fill="white"/>
<path d="M123.675 170.84C124.007 170.214 124.284 169.552 124.5 168.862C125.117 167.006 125.393 165.049 125.499 163.347C125.522 162.982 125.566 162.619 125.617 162.256C125.821 160.793 125.762 159.251 125.367 157.676C124.096 152.61 119.571 148.917 114.367 148.71C107.355 148.431 101.764 154.167 101.998 161.012C101.242 160.624 100.405 160.558 99.6828 160.912C98.2967 161.591 97.8594 163.55 98.7058 165.288C99.5524 167.025 101.362 167.883 102.749 167.204C102.941 167.11 103.113 166.989 103.268 166.849C104.06 172.654 108.973 176.985 114.677 176.694C117.467 176.551 119.955 175.327 121.795 173.429C121.919 173.318 122.048 173.188 122.183 173.038C122.777 172.378 123.267 171.633 123.675 170.84Z" fill="#FFC0BB"/>
<path d="M113 162.647C113.032 163.263 112.558 163.789 111.943 163.821C111.328 163.852 110.804 163.377 110.773 162.76C110.742 162.143 111.215 161.618 111.83 161.586C112.445 161.555 112.969 162.03 113 162.647Z" fill="#333333"/>
<path d="M122.154 162.647C122.185 163.263 121.712 163.789 121.097 163.821C120.482 163.852 119.958 163.377 119.926 162.76C119.895 162.143 120.368 161.618 120.983 161.586C121.598 161.555 122.122 162.03 122.154 162.647Z" fill="#333333"/>
<path d="M116.406 160.515C116.399 160.875 116.396 161.235 116.41 161.595C116.419 161.954 116.44 162.312 116.475 162.668C116.513 163.023 116.56 163.378 116.647 163.721C116.73 164.062 116.846 164.402 117.047 164.672C117.074 164.704 117.097 164.74 117.127 164.767C117.156 164.798 117.181 164.824 117.218 164.86C117.252 164.893 117.286 164.926 117.316 164.964C117.349 165 117.379 165.037 117.406 165.077C117.518 165.234 117.6 165.418 117.626 165.613C117.686 166.006 117.526 166.399 117.276 166.676C117.028 166.96 116.7 167.154 116.356 167.278C116.011 167.399 115.648 167.454 115.288 167.452C115.467 167.431 115.644 167.4 115.817 167.359C115.99 167.316 116.159 167.259 116.32 167.187C116.643 167.046 116.941 166.843 117.157 166.575C117.372 166.31 117.499 165.969 117.44 165.642C117.414 165.48 117.346 165.326 117.247 165.192C117.224 165.157 117.197 165.125 117.169 165.094C117.142 165.061 117.111 165.033 117.081 165.003L116.982 164.904C116.946 164.87 116.919 164.831 116.888 164.793C116.773 164.638 116.689 164.468 116.621 164.295C116.553 164.121 116.503 163.943 116.463 163.764C116.384 163.406 116.341 163.043 116.32 162.681C116.278 161.955 116.313 161.23 116.406 160.515Z" fill="#F99893"/>
<path d="M128.306 206.06C128.392 205.97 132.115 201.987 131.391 194.518C130.998 190.465 128.913 186.763 127.063 184.202C125.428 181.936 122.826 180.577 120.037 180.525C114.945 180.43 106.816 180.319 106.816 180.319C106.816 180.319 96.3294 179.164 93.0044 183.268C89.6794 187.373 78.4252 215.845 77.7858 229.44C77.1463 243.035 80.4715 259.067 80.4715 259.067C80.4715 259.067 84.1803 259.324 85.8428 259.067C87.5052 258.811 85.4592 232.775 87.2495 228.542C89.0399 224.31 97.0969 204.046 97.6085 202.122L99.6045 212.731C99.9724 214.687 99.8024 216.706 99.1117 218.572C97.4179 223.147 94.1485 231.94 92.8322 235.198C92.8322 235.198 118.009 239.261 130.414 233.104L130.301 232.626C128.238 223.926 127.578 214.961 128.306 206.06Z" fill="white"/>
<path d="M113.938 160.782C113.431 160.512 112.904 160.312 112.368 160.178C111.831 160.05 111.282 160.002 110.743 160.053C110.473 160.076 110.206 160.13 109.944 160.204C109.812 160.238 109.685 160.287 109.556 160.332C109.491 160.354 109.429 160.385 109.366 160.41C109.302 160.436 109.237 160.461 109.176 160.493C108.678 160.731 108.209 161.043 107.75 161.391C108.091 160.926 108.526 160.525 109.029 160.218C109.28 160.064 109.549 159.935 109.832 159.842C110.114 159.747 110.408 159.681 110.705 159.655C111.3 159.599 111.904 159.68 112.457 159.88C112.735 159.977 112.999 160.106 113.25 160.254C113.498 160.405 113.736 160.575 113.938 160.782Z" fill="#07085B"/>
<path d="M118.432 160.783C118.634 160.576 118.872 160.406 119.12 160.255C119.371 160.107 119.635 159.978 119.913 159.881C120.466 159.681 121.07 159.6 121.664 159.656C121.962 159.682 122.256 159.748 122.537 159.843C122.82 159.935 123.089 160.065 123.341 160.219C123.844 160.526 124.279 160.927 124.62 161.392C124.161 161.044 123.691 160.732 123.193 160.494C123.132 160.462 123.068 160.437 123.004 160.411C122.94 160.386 122.879 160.355 122.814 160.333C122.685 160.288 122.558 160.239 122.425 160.205C122.164 160.131 121.897 160.076 121.627 160.054C121.088 160.003 120.539 160.05 120.002 160.179C119.465 160.313 118.938 160.513 118.432 160.783Z" fill="#07085B"/>
<path d="M104.849 180.192C104.849 180.192 112.859 190.373 114.563 194.047C114.563 194.047 119.265 187.86 119.471 180.484L104.849 180.192Z" fill="#FFC0BB"/>
<path d="M114.563 194.047C114.779 197.578 114.915 201.114 114.993 204.651C115.041 206.419 115.053 208.188 115.077 209.957C115.084 211.726 115.086 213.495 115.072 215.264C115.064 216.149 115.053 217.033 115.034 217.918C115.015 218.803 115.005 219.687 114.979 220.572C114.917 222.34 114.869 224.109 114.765 225.876C114.578 229.41 114.31 232.945 113.799 236.447L113.888 235.123L113.987 233.802C114.04 232.92 114.077 232.036 114.122 231.154L114.158 230.493L114.182 229.831L114.23 228.507L114.282 227.183L114.316 225.858C114.418 222.327 114.47 218.793 114.497 215.259C114.537 211.726 114.539 208.191 114.546 204.656L114.563 194.047Z" fill="#81CAEF"/>
<path d="M98.4791 198.769C98.4279 199.054 98.3854 199.341 98.327 199.624C98.2647 199.907 98.2116 200.192 98.1371 200.472C97.9925 201.031 97.8368 201.591 97.6084 202.122C97.7755 201.57 97.9025 201.008 98.0002 200.442C98.1079 199.877 98.1838 199.307 98.2575 198.739C98.3923 197.598 98.465 196.451 98.4971 195.303L98.5184 194.442L98.5132 193.581C98.5234 193.006 98.4845 192.432 98.4764 191.856C98.4743 191.569 98.4463 191.282 98.4348 190.995L98.3918 190.132C98.3559 189.557 98.3041 188.983 98.2741 188.406C98.3689 188.975 98.4488 189.547 98.5322 190.119C98.5904 190.693 98.6607 191.267 98.7005 191.844L98.753 192.709C98.773 192.998 98.7798 193.287 98.7855 193.576L98.7995 194.444L98.4791 198.769Z" fill="#81CAEF"/>
<path d="M124.942 151.561C122.747 143.997 112.727 143.729 112.727 143.729C97.2307 144.807 99.6713 158.44 100.183 160.695C100.631 160.591 101.248 160.604 101.999 161.012C102.314 161.184 102.569 161.365 102.777 161.547C104.603 160.989 105.155 157.95 106.1 156.485C107.382 154.498 113.032 155.524 115.176 154.114C117.32 152.703 117.539 150.524 117.539 150.524C125.805 151.838 125.677 160.598 125.677 160.598C126.034 160.518 126.476 160.557 126.476 160.557C126.476 160.557 126.903 158.318 124.942 151.561Z" fill="#07085B"/>
<path d="M119.445 168.771C119.164 169.933 117.813 170.824 116.179 170.842C114.544 170.86 113.175 169.998 112.867 168.843L119.445 168.771Z" fill="white"/>
<path d="M198.932 93.1531C218.581 93.1531 234.51 77.1784 234.51 57.4726C234.51 37.7667 218.581 21.792 198.932 21.792C179.282 21.792 163.354 37.7667 163.354 57.4726C163.354 77.1784 179.282 93.1531 198.932 93.1531Z" fill="#09083C"/>
<path d="M198.932 88.0239C215.756 88.0239 229.395 74.3455 229.395 57.4724C229.395 40.5993 215.756 26.9209 198.932 26.9209C182.107 26.9209 168.468 40.5993 168.468 57.4724C168.468 74.3455 182.107 88.0239 198.932 88.0239Z" fill="white"/>
<path d="M166.169 56.872V57.7373H177.399V56.872H166.169Z" fill="#09083C"/>
<path d="M220.532 56.872V57.7373H231.763V56.872H220.532Z" fill="#09083C"/>
<path d="M199.316 24.8467H198.453V36.1095H199.316V24.8467Z" fill="#09083C"/>
<path d="M199.316 79.1484H198.453V90.4113H199.316V79.1484Z" fill="#09083C"/>
<path d="M199.861 57.4724C199.861 57.9873 199.445 58.4047 198.932 58.4047C198.418 58.4047 198.002 57.9874 198.002 57.4724C198.002 56.9575 198.418 56.54 198.932 56.54C199.445 56.5402 199.861 56.9577 199.861 57.4724Z" fill="#09083C"/>
<path d="M198.931 57.8896C198.825 57.8896 198.719 57.8489 198.638 57.7676L181.933 41.0152C181.771 40.8524 181.771 40.5884 181.933 40.4258C182.095 40.263 182.359 40.263 182.521 40.4258L199.225 57.1782C199.388 57.341 199.388 57.605 199.225 57.7676C199.144 57.8489 199.038 57.8896 198.931 57.8896Z" fill="#09083C"/>
<path d="M204.302 74.4028C204.233 74.3679 204.177 74.3066 204.151 74.2273L198.752 57.8711C198.699 57.7122 198.785 57.5407 198.944 57.4881C199.102 57.4354 199.273 57.5217 199.326 57.6806L204.725 74.0368C204.777 74.1956 204.691 74.3672 204.533 74.4198C204.454 74.4462 204.372 74.4378 204.302 74.4028Z" fill="#09083C"/>
<path d="M887.53 229.887C887.534 229.875 887.537 229.863 887.541 229.851C887.537 229.863 887.534 229.875 887.53 229.887Z" fill="#FFC0BB"/>
<path d="M887.758 229.107C887.762 229.091 887.767 229.075 887.772 229.06C887.767 229.075 887.762 229.091 887.758 229.107Z" fill="#FFC0BB"/>
<path d="M887.979 228.346C887.981 228.336 887.984 228.327 887.987 228.317C887.984 228.327 887.981 228.337 887.979 228.346Z" fill="#FFC0BB"/>
<path d="M888.378 226.959C888.38 226.951 888.382 226.943 888.384 226.936C888.382 226.943 888.38 226.951 888.378 226.959Z" fill="#FFC0BB"/>
<path d="M888.875 225.199C888.88 225.18 888.885 225.162 888.891 225.144C888.885 225.162 888.88 225.18 888.875 225.199Z" fill="#FFC0BB"/>
<path d="M894.869 253.905C886.768 253.578 881.071 248.047 881.071 248.047C881.071 248.046 881.071 248.046 881.071 248.046C880.805 248.469 880.561 248.759 880.347 248.879C877.836 250.296 846.077 257.104 842.938 256.828C839.799 256.552 836.845 259.687 836.217 262.1H847.86H848.668H889.45C889.45 262.1 895.04 253.599 894.869 253.905Z" fill="#FFC0BB"/>
<path d="M888.724 225.737C888.727 225.723 888.731 225.71 888.735 225.697C888.731 225.71 888.727 225.724 888.724 225.737Z" fill="#FFC0BB"/>
<path d="M888.551 226.349C888.558 226.323 888.565 226.297 888.573 226.271C888.565 226.297 888.558 226.323 888.551 226.349Z" fill="#FFC0BB"/>
<path d="M891.208 220.892C890.078 222.02 889.3 223.453 888.871 224.994C887.514 229.863 882.8 244.082 880.422 247.863C880.422 247.863 886.771 254.258 894.872 254.584C897.699 249.564 900.546 242.404 901.144 235.45C902.202 223.143 896.467 215.641 891.208 220.892Z" fill="#00AA99"/>
<path d="M544.886 136.717C544.76 135.605 544.611 134.467 544.094 133.474C543.467 132.267 542.365 131.396 541.402 130.437C539.603 128.644 538.219 126.436 537.388 124.033C536.745 122.175 536.425 120.195 535.54 118.441C534.999 117.369 534.262 116.411 533.648 115.381C532.196 112.944 531.406 110.065 529.437 108.025C529.059 110.498 529.807 113.122 531.433 115.019C531.918 115.585 532.48 116.095 532.849 116.743C533.52 117.918 533.459 119.353 533.537 120.705C533.685 123.245 534.4 125.751 535.616 127.986C536.907 130.359 538.772 132.472 539.462 135.086C539.979 137.044 539.826 139.241 540.929 140.939C541.048 141.122 541.185 141.307 541.214 141.525C541.231 141.647 541.212 141.771 541.193 141.893C541.168 142.051 541.144 142.208 541.119 142.366C540.868 143.969 540.609 146.008 541.985 147.208C542.939 148.04 544.166 148.058 544.851 146.954C545.541 145.842 545.48 144.214 545.429 142.963C545.343 140.879 545.12 138.789 544.886 136.717Z" fill="#4188E4"/>
<path d="M547.365 135.428C546.829 133.573 545.998 131.805 545.582 129.919C545.178 128.09 545.175 126.199 545.173 124.325C545.172 122.272 545.17 120.219 545.169 118.166C545.168 116.888 545.167 115.602 544.956 114.342C544.501 111.63 543.093 109.122 542.854 106.382C542.751 105.197 542.871 104 542.741 102.818C542.666 102.142 542.493 101.453 542.181 100.854C541.845 100.21 540.917 100.238 540.613 100.898C539.928 102.382 539.495 103.985 539.771 105.575C539.937 106.528 540.349 107.417 540.658 108.334C542.03 112.419 541.301 116.94 542.363 121.116C542.683 122.377 543.168 123.613 543.224 124.913C543.359 128.023 541.037 130.865 541.25 133.971C541.425 136.518 543.255 138.626 544.022 141.06C544.452 142.422 544.544 143.877 545.005 145.229C545.363 146.28 546.195 147.556 547.487 147.237C548.714 146.934 548.344 145.932 548.289 144.974C548.103 141.735 548.278 138.592 547.365 135.428Z" fill="#70C0FD"/>
<path d="M550.174 137.128C550.119 136.164 549.957 135.195 550.092 134.239C550.206 133.431 550.527 132.67 550.756 131.888C551.186 130.421 551.292 128.883 551.396 127.358C551.586 124.586 551.775 121.815 551.964 119.043C552.258 114.735 552.554 110.414 553.359 106.172C553.582 104.995 553.833 103.718 553.304 102.643C553.193 102.416 552.973 102.176 552.733 102.251C552.562 102.305 552.477 102.494 552.415 102.663C550.656 107.448 549.991 112.6 548.027 117.305C547.557 118.432 547.01 119.54 546.766 120.737C546.474 122.175 546.635 123.66 546.672 125.126C546.726 127.23 546.522 129.349 545.941 131.371C545.638 132.429 545.231 133.463 545.065 134.551C544.857 135.908 545.031 137.29 545.161 138.656C545.411 141.283 545.496 143.926 545.415 146.564C545.367 148.114 546.675 148.074 547.541 147.121C548.147 146.455 548.141 145.723 548.349 144.894C549.03 142.171 550.339 140.08 550.174 137.128Z" fill="#4188E4"/>
<path d="M542.002 141.333C540.846 139.473 538.541 138.416 537.802 136.353C537.614 135.828 537.541 135.264 537.311 134.756C536.8 133.627 535.64 132.99 534.499 132.471C534.341 132.399 534.161 132.514 534.158 132.688C534.155 132.966 534.286 133.23 534.515 133.385C535.394 133.977 536.062 134.882 536.36 135.902C536.712 137.111 536.559 138.436 536.997 139.617C537.365 140.607 538.122 141.418 538.477 142.413C538.802 143.323 538.768 144.317 538.921 145.271C539.074 146.226 539.497 147.238 540.373 147.642C543.541 149.103 542.75 142.535 542.002 141.333Z" fill="#70C0FD"/>
<path d="M555.179 140.72C555.13 141.619 555.267 142.562 554.915 143.39C554.69 143.92 554.286 144.349 553.954 144.819C552.787 146.47 552.365 148.809 550.572 149.739C550.454 149.8 550.322 149.855 550.191 149.83C550.008 149.796 549.887 149.619 549.814 149.447C549.374 148.423 549.867 147.268 550.159 146.192C550.21 146.004 550.253 145.794 550.163 145.621C550.065 145.431 549.84 145.348 549.686 145.199C549.38 144.901 549.409 144.408 549.47 143.984C549.622 142.926 549.835 141.877 550.109 140.843C550.264 140.258 550.443 139.666 550.781 139.163C551.152 138.61 551.691 138.196 552.196 137.762C554.428 135.841 556.137 133.316 557.094 130.527C557.301 129.923 557.485 129.286 557.913 128.813C558.341 128.34 559.104 128.097 559.625 128.464C559.995 128.725 558.477 131.169 558.3 131.462C557.794 132.3 557.787 133.028 557.501 133.959C556.801 136.238 555.313 138.278 555.179 140.72Z" fill="#4188E4"/>
<path d="M553.412 141.759C553.744 140.902 554.078 140.033 554.187 139.119C554.309 138.104 554.148 137.066 554.321 136.058C554.544 134.762 555.299 133.623 555.672 132.362C555.942 131.452 556.008 130.496 556.17 129.561C556.634 126.886 557.89 124.272 557.53 121.581C557.451 120.996 557.187 120.314 556.607 120.214C556.081 120.124 555.603 120.605 555.466 121.121C555.33 121.638 555.432 122.183 555.469 122.716C555.574 124.203 555.15 125.723 554.291 126.939C553.465 128.108 552.268 128.988 551.525 130.212C550.614 131.712 550.49 133.544 550.025 135.238C549.1 138.607 546.781 141.546 546.358 145.014C546.19 146.394 546.514 148.071 547.787 148.623C551.468 150.217 552.578 143.917 553.412 141.759Z" fill="#70C0FD"/>
<path d="M546.978 144.294H546.389H538.53C537.953 144.294 537.527 144.835 537.66 145.398L540.74 158.393C540.835 158.798 541.196 159.083 541.61 159.083H546.389H546.978H551.757C552.171 159.083 552.531 158.797 552.627 158.393L555.706 145.398C555.84 144.835 555.414 144.294 554.836 144.294H546.978Z" fill="white"/>
<path d="M670.657 202.678C672.517 195.423 675.476 192.546 680.622 189.838C684.562 187.764 689.219 187.096 693.995 188.644C703.734 191.801 706.246 202.485 707.23 208.008C710.584 226.84 726.32 242.857 720.594 255.744C714.868 268.631 687.989 267.25 687.989 267.25L675.661 258.359C675.661 258.359 674.567 236.711 674.563 234.944C674.559 233.177 669.891 233.304 669.891 224.455C669.891 217.403 668.47 211.211 670.657 202.678Z" fill="#333333"/>
<path d="M638.011 229.311C637.993 229.529 637.741 229.643 637.569 229.508C636.233 228.463 632.011 225.204 631.669 225.484C631.262 225.817 634.964 228.822 634.802 229.284C634.639 229.745 631.102 226.722 630.724 227.149C630.346 227.575 633.664 230.223 633.567 230.459C633.47 230.694 630.022 228.498 629.649 228.616C629.277 228.733 632.674 231.526 632.638 231.845C632.601 232.165 629.618 231.019 629.49 231.264C629.362 231.509 629.236 231.652 635.216 236.162L637.646 237.836L640.366 238.13L641.909 235.217C641.909 235.217 639.242 225.937 638.863 225.817C638.503 225.702 638.285 225.946 638.011 229.311Z" fill="#FFC0BB"/>
<path d="M678.711 225.06C678.711 225.06 657.872 248.717 656.993 248.821C656.113 248.926 642.146 232.554 642.146 232.554C642.146 232.554 637.141 236.724 636.271 238.168C636.271 238.168 651.193 263.061 655.025 264.473C658.858 265.885 684.305 241.855 684.305 241.855L678.711 225.06Z" fill="#EF5488"/>
<path d="M676.279 255.517L676.529 255.647C676.529 255.647 676.553 255.452 676.593 255.111C676.488 255.249 676.383 255.385 676.279 255.517Z" fill="#F4A640"/>
<path d="M695.591 225.287C694.528 226.348 693.798 227.696 693.394 229.144C691.975 234.234 687.24 250.753 685.245 251.879C682.884 253.211 653.025 259.612 650.074 259.352C647.123 259.092 644.345 262.04 643.755 264.309H654.701H655.461H693.802C693.802 264.309 703.815 251.966 704.932 238.974C705.927 227.404 700.535 220.351 695.591 225.287Z" fill="#FFC0BB"/>
<path d="M691.758 215.643V223.993C691.758 224.457 691.493 224.88 691.074 225.077C689.801 225.675 686.954 226.656 684.297 225.093C683.938 224.882 683.727 224.486 683.727 224.069V216.527L691.758 215.643Z" fill="#FFC0BB"/>
<path d="M691.758 220.115V215.643L683.727 216.527V220.321C685.234 220.778 688.038 221.235 691.758 220.115Z" fill="#F99893"/>
<path d="M678.449 214.215C678.168 213.638 677.938 213.03 677.764 212.399C677.263 210.7 677.073 208.92 677.03 207.376C677.02 207.044 676.992 206.714 676.958 206.385C676.818 205.053 676.919 203.659 677.325 202.246C678.633 197.701 682.844 194.498 687.561 194.474C693.916 194.44 698.8 199.806 698.375 205.996C699.072 205.668 699.831 205.634 700.474 205.977C701.708 206.635 702.043 208.422 701.223 209.969C700.403 211.515 698.738 212.235 697.504 211.577C697.333 211.486 697.181 211.371 697.045 211.24C696.148 216.469 691.566 220.237 686.412 219.795C683.891 219.579 681.676 218.392 680.07 216.617C679.962 216.513 679.849 216.391 679.731 216.251C679.213 215.635 678.793 214.946 678.449 214.215Z" fill="#FFC0BB"/>
<path d="M688.148 207.588C688.107 208.065 688.459 208.484 688.935 208.525C689.41 208.566 689.828 208.212 689.868 207.736C689.909 207.259 689.557 206.84 689.082 206.799C688.606 206.758 688.188 207.112 688.148 207.588Z" fill="#333333"/>
<path d="M680.717 207.441C680.676 207.917 681.029 208.337 681.504 208.377C681.979 208.418 682.397 208.065 682.438 207.588C682.478 207.112 682.126 206.692 681.651 206.652C681.176 206.611 680.758 206.964 680.717 207.441Z" fill="#333333"/>
<path d="M687.255 205.788C687.691 205.651 688.105 205.546 688.517 205.486C688.928 205.425 689.332 205.419 689.726 205.473C690.116 205.532 690.508 205.625 690.881 205.807L691.026 205.866C691.074 205.887 691.117 205.917 691.164 205.94L691.449 206.089C691.64 206.192 691.816 206.322 692.028 206.425C691.918 206.226 691.793 206.03 691.646 205.85C691.482 205.691 691.332 205.502 691.129 205.378C690.754 205.086 690.283 204.915 689.807 204.847C689.327 204.782 688.834 204.842 688.393 205.007C687.955 205.177 687.549 205.43 687.255 205.788Z" fill="#333333"/>
<path d="M683.778 205.668C683.509 205.291 683.122 205.011 682.696 204.811C682.267 204.616 681.78 204.522 681.296 204.554C680.816 204.589 680.334 204.727 679.941 204.992C679.73 205.102 679.567 205.28 679.393 205.428C679.234 205.597 679.096 205.784 678.973 205.975C679.191 205.886 679.376 205.77 679.573 205.68L679.867 205.55C679.916 205.531 679.961 205.504 680.011 205.486L680.159 205.438C680.543 205.282 680.941 205.216 681.334 205.184C681.73 205.157 682.133 205.191 682.539 205.28C682.946 205.368 683.352 205.501 683.778 205.668Z" fill="#333333"/>
<path d="M685.402 206.559C685.048 206.988 684.734 207.445 684.441 207.917C684.148 208.389 683.882 208.877 683.656 209.392C683.548 209.653 683.447 209.917 683.387 210.21C683.375 210.284 683.365 210.361 683.363 210.442C683.362 210.482 683.368 210.527 683.371 210.57C683.382 210.617 683.387 210.662 683.413 210.712C683.426 210.737 683.44 210.762 683.455 210.785L683.493 210.828C683.519 210.856 683.543 210.886 683.569 210.912C683.624 210.961 683.677 211.013 683.734 211.057C683.958 211.24 684.202 211.383 684.45 211.51C684.701 211.634 684.956 211.746 685.221 211.83C684.759 211.526 684.293 211.224 683.911 210.858C683.863 210.813 683.822 210.763 683.778 210.716L683.72 210.643L683.692 210.607C683.69 210.6 683.688 210.594 683.685 210.588C683.66 210.53 683.674 210.392 683.704 210.275C683.763 210.027 683.86 209.774 683.969 209.527C684.181 209.029 684.43 208.54 684.673 208.047C684.919 207.555 685.168 207.063 685.402 206.559Z" fill="#F99893"/>
<path d="M664.518 335.975L665.012 348.354L659.07 348.395L658.503 336.705L664.518 335.975Z" fill="#FFC0BB"/>
<path d="M649.363 355.463L666.441 355.578C666.815 355.581 667.115 355.286 667.112 354.92L667.107 354.427C667.104 354.061 666.799 353.762 666.426 353.76L649.347 353.645C648.974 353.642 648.674 353.937 648.677 354.303L648.681 354.796C648.684 355.162 648.989 355.46 649.363 355.463Z" fill="white"/>
<path d="M666.21 348.236L666.865 353.297C666.945 353.921 666.594 354.485 666.127 354.481L649.886 354.372C649.464 354.369 649.045 354.108 648.819 353.621C648.587 353.122 648.535 352.372 649.254 351.37C650.69 349.364 655.463 348.906 657.785 347.201L665.35 347.252C665.773 347.255 666.136 347.672 666.21 348.236Z" fill="#09083C"/>
<path d="M658.959 350.145C659.076 350.075 659.117 349.881 659.048 349.733C658.723 349.038 657.711 347.345 655.686 347.678C655.569 347.697 655.491 347.849 655.512 348.006L655.513 348.011C655.534 348.164 655.64 348.264 655.753 348.246C657.568 347.954 658.429 349.447 658.692 350.029C658.748 350.154 658.862 350.203 658.959 350.145Z" fill="white"/>
<path d="M657.278 350.785C657.395 350.714 657.436 350.521 657.367 350.373C657.042 349.678 656.031 347.985 654.006 348.317C653.889 348.337 653.81 348.488 653.832 348.646L653.832 348.651C653.853 348.803 653.959 348.904 654.073 348.886C655.888 348.594 656.748 350.086 657.011 350.669C657.067 350.793 657.181 350.843 657.278 350.785Z" fill="white"/>
<path d="M655.715 351.381C655.831 351.311 655.873 351.118 655.804 350.97C655.479 350.275 654.467 348.581 652.442 348.914C652.325 348.933 652.247 349.085 652.268 349.243L652.269 349.248C652.29 349.4 652.396 349.501 652.509 349.482C654.324 349.191 655.185 350.683 655.448 351.266C655.504 351.39 655.618 351.439 655.715 351.381Z" fill="white"/>
<path opacity="0.3" d="M661.792 354.452C663.036 350.376 665.237 349.939 666.443 350.042L666.864 353.297C666.945 353.921 666.594 354.485 666.127 354.482L661.792 354.452Z" fill="#E87B50"/>
<path d="M636.557 335.975L637.052 347.818L631.109 347.859L630.542 336.705L636.557 335.975Z" fill="#FFC0BB"/>
<path d="M621.403 355.463L638.481 355.578C638.855 355.581 639.155 355.286 639.151 354.92L639.147 354.427C639.144 354.061 638.839 353.762 638.466 353.76L621.387 353.645C621.014 353.642 620.713 353.937 620.717 354.303L620.721 354.796C620.724 355.162 621.03 355.46 621.403 355.463Z" fill="white"/>
<path d="M638.249 348.236L638.904 353.297C638.984 353.921 638.633 354.485 638.166 354.481L621.925 354.372C621.503 354.369 621.084 354.108 620.858 353.621C620.627 353.122 620.574 352.372 621.293 351.37C622.729 349.364 627.502 348.906 629.824 347.201L637.389 347.252C637.812 347.255 638.176 347.672 638.249 348.236Z" fill="#09083C"/>
<path d="M630.998 350.145C631.115 350.075 631.156 349.881 631.087 349.733C630.762 349.038 629.75 347.345 627.725 347.678C627.608 347.697 627.53 347.849 627.551 348.006L627.552 348.011C627.573 348.164 627.679 348.264 627.792 348.246C629.607 347.954 630.468 349.447 630.731 350.029C630.787 350.154 630.901 350.203 630.998 350.145Z" fill="white"/>
<path d="M629.317 350.785C629.434 350.714 629.475 350.521 629.406 350.373C629.081 349.678 628.069 347.985 626.044 348.317C625.927 348.337 625.849 348.488 625.871 348.646L625.871 348.651C625.892 348.803 625.998 348.904 626.112 348.886C627.927 348.594 628.787 350.086 629.05 350.669C629.106 350.793 629.22 350.843 629.317 350.785Z" fill="white"/>
<path d="M627.754 351.381C627.871 351.311 627.912 351.118 627.843 350.97C627.518 350.275 626.506 348.581 624.481 348.914C624.364 348.933 624.286 349.085 624.307 349.243L624.308 349.248C624.328 349.4 624.435 349.501 624.548 349.482C626.363 349.191 627.224 350.683 627.487 351.266C627.543 351.39 627.657 351.439 627.754 351.381Z" fill="white"/>
<path opacity="0.3" d="M633.832 354.452C635.075 350.376 637.277 349.939 638.483 350.042L638.904 353.297C638.985 353.921 638.634 354.485 638.167 354.482L633.832 354.452Z" fill="#E87B50"/>
<path d="M661.132 271.346C661.132 271.346 631.574 271.453 627.013 277.4C622.451 283.347 618.984 323.512 627.013 341.078C627.013 341.078 637.413 341.444 639.785 339.98C639.785 339.98 639.055 310.337 639.42 302.469C639.785 294.6 645.258 293.502 645.988 292.77C646.718 292.039 661.132 271.346 661.132 271.346Z" fill="#09083C"/>
<path d="M664.473 314.442C664.207 311.969 663.861 308.757 663.486 305.121C662.817 297.98 661.974 293.7 662.868 293.787C669.99 294.477 689.358 291.016 700.799 288.778C707.76 287.417 711.744 279.816 708.649 273.416C708.261 272.614 707.792 271.907 707.231 271.346C701.889 266.006 690.861 267.72 690.874 266.973C628.468 272.186 642.219 282.909 648.072 319.931C648.104 320.09 648.137 320.248 648.17 320.406C650.709 332.649 653.104 342.725 653.104 342.725C653.104 342.725 662.227 343.091 667.518 341.81C667.525 341.867 665.873 327.406 664.473 314.442Z" fill="#09083C"/>
<path d="M702.966 223.816C700.933 221.892 696.114 221.453 691.658 221.515C691.72 221.542 691.758 221.559 691.758 221.559C687.848 225.914 683.726 222.069 683.726 222.069C682.93 222.165 682.462 222.235 682.462 222.235C682.462 222.235 679.504 223.641 676.309 227.613C676.264 227.669 672.835 231.34 672.497 235.7C672.256 238.808 676.239 243.346 676.239 245.122C676.239 246.897 674.403 259.769 674.403 259.769L675.096 259.683C675.095 259.72 675.095 259.752 675.095 259.769C675.1 259.931 673.675 260.157 671.861 260.381C671.781 262.681 671.74 264.112 671.74 264.112V268.6C695.488 272.546 709.711 279.205 709.711 279.205C710.887 232.852 703.283 224.116 702.966 223.816Z" fill="#EA426E"/>
<path d="M695.591 225.287C694.528 226.348 693.797 227.696 693.394 229.144C691.975 234.234 687.239 250.753 685.244 251.879C683.367 252.938 664.108 257.201 654.811 258.773C654.811 258.773 655.492 261.548 656.102 264.309H693.802C693.802 264.309 703.814 251.966 704.932 238.974C705.927 227.404 700.535 220.351 695.591 225.287Z" fill="#F76390"/>
<path d="M580.125 228.88H625.062L637.803 260.069H659.45C660.055 260.069 660.546 260.561 660.546 261.168C660.546 261.775 660.055 262.267 659.45 262.267H595.058L580.125 228.88Z" fill="#07085B"/>
<path d="M602.408 246.678C602.673 248.007 603.829 248.896 604.989 248.663C606.148 248.43 606.874 247.164 606.608 245.835C606.343 244.506 605.188 243.617 604.028 243.85C602.868 244.082 602.143 245.349 602.408 246.678Z" fill="#DAEEF7"/>
<path d="M680.603 193.576C680.603 193.576 692.673 204.726 698.375 205.995C698.375 205.995 699.135 197.35 699.061 197.054C698.988 196.758 691.832 189.951 691.389 190.025C690.946 190.099 677.962 191.949 677.962 191.949L674.403 200.753L680.603 193.576Z" fill="#333333"/>
<path d="M673.756 195.945L676.905 204.881C676.905 204.881 683.252 200.384 685.697 195.945C688.142 191.505 679.363 193.133 679.363 193.133L673.756 195.945Z" fill="#333333"/>
<path opacity="0.3" d="M688.031 213.351C688.031 213.351 686.835 213.014 685.788 213.813C685.788 213.813 684.549 213.153 683.664 213.93C683.664 213.93 684.223 215.671 686.164 215.414C688.105 215.157 688.031 213.351 688.031 213.351Z" fill="#F99893"/>
<path d="M689.008 212.644C688.8 212.838 688.582 213.02 688.35 213.181C688.122 213.347 687.885 213.498 687.637 213.628C687.142 213.889 686.615 214.085 686.067 214.171C685.52 214.259 684.96 214.23 684.417 214.105C683.875 213.972 683.356 213.742 682.861 213.459C683.085 213.635 683.324 213.795 683.576 213.932C683.828 214.071 684.099 214.174 684.374 214.265C684.652 214.347 684.939 214.401 685.229 214.422C685.52 214.439 685.812 214.426 686.101 214.383C686.676 214.288 687.228 214.075 687.718 213.771C688.208 213.468 688.656 213.094 689.008 212.644Z" fill="#F99893"/>
<path d="M173.945 241.969H156.576V245.523H173.945V241.969Z" fill="white"/>
<path d="M201.717 241.969H184.349V245.523H201.717V241.969Z" fill="white"/>
<path d="M749.533 132.774H742.51V136.237H749.533V132.774Z" fill="#97CEF7"/>
<path d="M766.5 124.511H758.874V127.973H766.5V124.511Z" fill="#97CEF7"/>
<path d="M757.876 157.354H750.419V159.317H757.876V157.354Z" fill="#97CEF7"/>
<path d="M815.558 127.974H808.534V130.203H815.558V127.974Z" fill="#97CEF7"/>
<path d="M815.558 157.976H808.534V160.205H815.558V157.976Z" fill="#97CEF7"/>
<path d="M823.901 136.236H816.443V140.066H823.901V136.236Z" fill="#97CEF7"/>
<path d="M832.524 123.803H824.898V126.242H832.524V123.803Z" fill="white"/>
<path d="M807.973 254.608V247.129H777.805V254.608H807.973Z" fill="#97CEF7"/>
<path d="M815.323 262.255V254.607H773.449V262.255H815.323Z" fill="#142666"/>
<path d="M810.708 247.129V240.085H773.449V247.129H810.708Z" fill="white"/>
<path d="M807.575 247.129V240.085H805.352V247.129H807.575Z" fill="#97CEF7"/>
<path d="M777.66 247.129V240.085H775.437V247.129H777.66Z" fill="#97CEF7"/>
<path d="M811.734 262.255V254.607H809.302V262.255H811.734Z" fill="white"/>
<path d="M440.366 120.55H432.459V123.278H440.366V120.55Z" fill="white"/>
<path d="M447.916 128.629H443.208V141.624H447.916V128.629Z" fill="#97CEF7"/>
<path d="M459.469 117.237H450.884V119.291H459.469V117.237Z" fill="#97CEF7"/>
<path d="M459.469 152.695H450.884V155.387H459.469V152.695Z" fill="#97CEF7"/>
<path d="M517.296 289.505L521.917 355.592H519.607L512.291 290.221L517.296 289.505Z" fill="#07085B"/>
<path d="M468.768 289.505L464.147 355.592H466.457L473.773 290.221L468.768 289.505Z" fill="#07085B"/>
<path d="M537.46 218.009C537.46 218.009 500.527 216.914 498.137 217.084C495.747 217.255 493.536 224.946 493.536 224.946C493.536 224.946 482.748 265.003 482.963 266.105C483.178 267.207 472.898 293.02 472.898 293.02C472.898 293.02 481.766 292.784 482.158 293.02C482.55 293.256 516.45 290.108 516.921 289.793C517.392 289.478 519.118 283.576 519.197 283.261C519.275 282.946 521.865 259.967 521.865 259.967L523.199 247.297C523.199 247.297 528.299 236.426 528.378 236.392C528.456 236.358 533.165 226.835 533.478 226.363C533.792 225.891 538.657 220.618 538.814 220.146C538.971 219.674 537.46 218.009 537.46 218.009Z" fill="#57ACE5"/>
<path opacity="0.3" d="M537.459 218.009C537.459 218.009 524.726 217.632 513.729 217.354C518.003 219.871 520.4 226.912 518.621 239.435C517.109 250.078 515.43 261.628 508.734 275.478C505.285 282.612 490.435 278.616 478.263 279.322C475.641 286.133 472.898 293.02 472.898 293.02C472.898 293.02 481.766 292.784 482.158 293.02C482.55 293.256 516.45 290.108 516.921 289.793C517.392 289.479 519.118 283.576 519.197 283.262C519.275 282.947 521.865 259.967 521.865 259.967L523.199 247.297C523.199 247.297 528.299 236.426 528.378 236.392C528.456 236.358 533.165 226.836 533.478 226.363C533.792 225.891 538.658 220.619 538.814 220.146C538.971 219.674 537.459 218.009 537.459 218.009Z" fill="#57ACE5"/>
<path d="M466.151 294.43L466.151 294.429C466.073 293.165 467.024 292.076 468.284 291.99C472.23 291.722 480.765 291.111 489.544 290.277C506.37 288.68 512.454 287.372 514.631 286.688C515.383 286.452 515.96 285.842 516.153 285.076C516.743 282.722 517.089 277.837 517.379 273.75C518.478 258.241 520.29 232.666 536.212 218.625C537.206 217.749 538.735 217.905 539.542 218.957C540.277 219.914 540.151 221.283 539.245 222.079C524.739 234.827 523.074 258.333 521.958 274.076C521.322 283.05 520.93 287.455 518.971 289.505C518.027 290.493 516.268 292.333 490.685 294.793C481.608 295.666 472.674 296.306 468.594 296.584C467.324 296.67 466.23 295.704 466.151 294.43Z" fill="#026EAF"/>
<path d="M436.482 335.393L435.083 346.655L427.553 347.241L427.669 336.796L436.482 335.393Z" fill="#FFC0BB"/>
<path d="M416.111 355.484L436.683 355.623C437.132 355.627 437.494 355.272 437.49 354.831L437.485 354.237C437.481 353.796 437.113 353.436 436.664 353.433L416.092 353.294C415.642 353.291 415.28 353.646 415.284 354.087L415.289 354.681C415.293 355.121 415.661 355.481 416.111 355.484Z" fill="white"/>
<path d="M436.403 346.779L437.192 352.875C437.289 353.627 436.866 354.306 436.303 354.302L416.74 354.17C416.232 354.166 415.727 353.852 415.455 353.266C415.176 352.664 415.114 351.761 415.979 350.554C417.709 348.138 423.458 347.585 426.255 345.532L435.368 345.594C435.877 345.597 436.315 346.099 436.403 346.779Z" fill="#EA426E"/>
<path d="M427.67 349.079C427.81 348.995 427.86 348.762 427.776 348.583C427.385 347.746 426.166 345.706 423.727 346.107C423.586 346.131 423.492 346.314 423.518 346.503L423.519 346.509C423.544 346.693 423.672 346.814 423.808 346.792C425.994 346.441 427.031 348.238 427.348 348.94C427.415 349.089 427.553 349.149 427.67 349.079Z" fill="white"/>
<path d="M425.644 349.849C425.785 349.765 425.834 349.532 425.751 349.354C425.36 348.517 424.141 346.477 421.702 346.878C421.561 346.901 421.467 347.084 421.493 347.274L421.493 347.28C421.518 347.463 421.646 347.584 421.783 347.562C423.969 347.211 425.005 349.009 425.322 349.711C425.39 349.86 425.527 349.92 425.644 349.849Z" fill="white"/>
<path d="M423.761 350.568C423.902 350.484 423.951 350.251 423.868 350.073C423.477 349.236 422.258 347.196 419.819 347.597C419.678 347.62 419.584 347.803 419.61 347.993L419.611 347.999C419.635 348.182 419.764 348.303 419.9 348.281C422.086 347.93 423.123 349.728 423.439 350.429C423.507 350.579 423.644 350.638 423.761 350.568Z" fill="white"/>
<path opacity="0.3" d="M431.082 354.266C432.58 349.356 435.232 348.83 436.684 348.954L437.192 352.874C437.289 353.626 436.866 354.305 436.303 354.301L431.082 354.266Z" fill="#E87B50"/>
<path d="M471.237 242.742L469.993 255.726L474.937 256.67L477.659 251.525L477.212 244.708L473.367 242.028L471.237 242.742Z" fill="#F9B5B2"/>
<path d="M476.254 222.279C476.254 222.279 471.236 235.375 471.236 242.742C471.236 242.742 473.867 244.472 477.658 244C481.449 243.527 478.263 228.575 478.404 228.181C478.546 227.788 476.254 222.279 476.254 222.279Z" fill="#F4A640"/>
<path d="M448.042 335.632L444.713 346.5L437.05 346.553L438.384 338.619L448.042 335.632Z" fill="#FFC0BB"/>
<path d="M492.357 252.188L483.145 266.12L470.9 263.698L450.117 248.149L453.763 242.742C453.763 242.742 473.236 254.448 474.893 254.776C476.55 255.104 481.067 244.517 481.067 244.517L492.357 252.188Z" fill="#F9B5B2"/>
<path d="M426.042 355.685L446.614 355.824C447.064 355.828 447.426 355.473 447.422 355.032L447.416 354.438C447.412 353.997 447.045 353.637 446.595 353.634L426.023 353.495C425.573 353.492 425.212 353.847 425.216 354.288L425.221 354.882C425.225 355.323 425.593 355.682 426.042 355.685Z" fill="white"/>
<path d="M446.335 346.98L447.124 353.076C447.221 353.828 446.798 354.507 446.235 354.503L426.672 354.371C426.164 354.367 425.659 354.053 425.387 353.466C425.108 352.865 425.045 351.962 425.91 350.755C427.64 348.339 433.39 347.786 436.187 345.733L445.299 345.795C445.808 345.799 446.247 346.3 446.335 346.98Z" fill="#F76390"/>
<path d="M437.601 349.28C437.742 349.196 437.791 348.963 437.708 348.785C437.317 347.947 436.098 345.908 433.659 346.308C433.518 346.332 433.424 346.515 433.45 346.704L433.45 346.711C433.475 346.894 433.603 347.015 433.74 346.993C435.926 346.642 436.963 348.44 437.279 349.141C437.347 349.291 437.484 349.35 437.601 349.28Z" fill="white"/>
<path d="M435.577 350.05C435.717 349.965 435.767 349.732 435.684 349.554C435.292 348.717 434.074 346.677 431.634 347.078C431.493 347.101 431.4 347.284 431.425 347.474L431.426 347.48C431.451 347.664 431.579 347.785 431.715 347.763C433.902 347.411 434.938 349.209 435.255 349.911C435.322 350.06 435.46 350.12 435.577 350.05Z" fill="white"/>
<path d="M433.693 350.769C433.833 350.684 433.883 350.451 433.8 350.273C433.408 349.436 432.19 347.396 429.751 347.797C429.61 347.82 429.516 348.003 429.541 348.193L429.542 348.199C429.567 348.382 429.695 348.504 429.832 348.482C432.018 348.13 433.054 349.928 433.371 350.63C433.439 350.779 433.576 350.838 433.693 350.769Z" fill="white"/>
<path opacity="0.3" d="M441.014 354.467C442.512 349.557 445.164 349.031 446.616 349.155L447.124 353.076C447.221 353.827 446.798 354.506 446.235 354.502L441.014 354.467Z" fill="#E87B50"/>
<path d="M513.492 279.098C512.446 269.34 500.897 269.183 500.897 269.183L494.684 268.642L494.533 267.321C494.533 267.321 451.692 262.218 445.834 281.665C439.977 301.111 435.533 339.599 435.533 339.599C435.533 339.599 441.189 343.042 448.864 339.599C448.864 339.599 459.721 298.275 463.786 294.224C467.851 290.173 497.066 289.505 497.066 289.505C497.066 289.505 514.539 288.857 513.492 279.098Z" fill="#09083C"/>
<path d="M473.367 261.943C473.367 261.943 474.378 226.372 476.254 222.279C478.131 218.187 484.772 217.4 484.772 217.4C484.772 217.4 502.083 214.826 506.581 219.082C506.918 219.401 514.744 229.795 513.492 279.099C513.492 279.099 498.626 270.914 473.367 266.717V261.943Z" fill="#FEB546"/>
<path d="M494.659 210.336V219.218C494.659 219.712 494.377 220.162 493.932 220.371C492.578 221.007 489.55 222.05 486.723 220.388C486.341 220.164 486.116 219.743 486.116 219.299V211.276L494.659 210.336Z" fill="#FFC0BB"/>
<path d="M494.659 217.158V212.401L486.116 213.342V217.378C487.719 217.864 490.702 218.35 494.659 217.158Z" fill="#F99893"/>
<path d="M431.086 255.489H383.48V262.1H431.086V255.489Z" fill="white"/>
<path d="M425.331 248.879H377.726V255.489H425.331V248.879Z" fill="#70C0FD"/>
<path d="M466.122 268.295C466.122 268.295 434.119 267.283 426.848 274.17C419.576 281.057 424.454 332.896 425.666 337.65C425.666 337.65 432.301 340.814 437.553 339.194C442.805 337.574 440.785 314.886 440.785 314.886C440.785 314.886 440.179 293.211 440.987 290.173C441.795 287.134 452.904 284.906 452.904 284.906C452.904 284.906 470.073 272.955 469.063 272.955C468.053 272.955 466.122 268.295 466.122 268.295Z" fill="#09083C"/>
<path d="M457.592 237.87L452.474 223.712C452.28 223.176 451.665 222.927 451.154 223.179L441.469 227.953C440.948 228.21 440.721 228.832 440.953 229.365L449.331 248.616C449.586 249.203 450.254 249.488 450.853 249.266L459.348 246.115L457.592 237.87Z" fill="#07085B"/>
<path d="M448.926 238.883C448.93 238.845 448.936 238.808 448.945 238.772C449.183 237.85 449.445 237.737 449.619 237.739C449.588 237.59 449.589 237.45 449.63 237.324C450.063 236.007 450.558 237.201 450.558 237.201C451.786 239.03 455.581 240.671 455.581 240.671L456.877 240.953C456.813 240.737 457.592 237.87 457.592 237.87C457.592 237.87 460.3 242.792 460.325 242.851C460.412 243.077 458.983 245.091 458.383 245.752C457.787 246.416 456.614 248.022 456.539 248.149C456.539 248.149 453.726 246.358 452.719 245.479C451.548 244.509 449.712 242.952 448.992 242.141C448.473 241.556 448.453 240.975 448.574 240.525C448.266 239.901 448.579 239.299 448.926 238.883Z" fill="#FFC0BB"/>
<path d="M448.944 238.811C448.998 239.18 449.148 239.53 449.327 239.857C449.507 240.186 449.737 240.485 449.988 240.762C450.246 241.033 450.526 241.283 450.832 241.496C450.982 241.607 451.145 241.698 451.3 241.798C451.464 241.886 451.629 241.971 451.796 242.05C451.493 241.837 451.19 241.63 450.907 241.397C450.624 241.165 450.355 240.918 450.106 240.652C449.859 240.384 449.633 240.097 449.433 239.793C449.237 239.486 449.063 239.162 448.944 238.811Z" fill="#F99893"/>
<path d="M448.568 240.525C448.651 240.889 448.828 241.226 449.032 241.538C449.238 241.852 449.49 242.132 449.762 242.389C450.041 242.638 450.339 242.866 450.661 243.054C450.819 243.152 450.989 243.23 451.152 243.318C451.322 243.392 451.493 243.464 451.666 243.53C451.347 243.341 451.028 243.159 450.728 242.949C450.428 242.74 450.14 242.515 449.871 242.27C449.604 242.022 449.357 241.754 449.133 241.466C448.913 241.176 448.714 240.866 448.568 240.525Z" fill="#F99893"/>
<path d="M449.619 237.739C449.673 238.108 449.823 238.458 450.002 238.786C450.182 239.115 450.412 239.414 450.663 239.691C450.921 239.962 451.201 240.212 451.507 240.425C451.657 240.535 451.82 240.627 451.975 240.727C452.139 240.815 452.304 240.9 452.471 240.979C452.168 240.765 451.865 240.559 451.582 240.325C451.299 240.093 451.03 239.846 450.781 239.581C450.534 239.313 450.309 239.026 450.108 238.721C449.912 238.415 449.737 238.09 449.619 237.739Z" fill="#F99893"/>
<path d="M498.778 252.188L489.566 266.12L477.321 263.698L456.538 248.149L460.183 242.742C460.183 242.742 479.657 254.448 481.313 254.776C482.97 255.104 487.488 244.517 487.488 244.517L498.778 252.188Z" fill="#FFC0BB"/>
<path d="M506.675 228.558C505.668 234.084 503.025 246.881 499.205 252.79C499.205 252.79 489.966 252.113 484.764 245.79C484.764 245.79 491.874 228.207 493.731 224.604C495.223 221.708 502.415 213.098 505.971 221.64C506.88 223.823 507.098 226.231 506.675 228.558Z" fill="#F4A640"/>
<path d="M380.97 266.717H377.727V355.592H380.97V266.717Z" fill="#183658"/>
<path d="M411.574 266.717H408.33V355.592H411.574V266.717Z" fill="#183658"/>
<path d="M504.14 266.717H500.896V355.592H504.14V266.717Z" fill="#183658"/>
<path d="M534.744 266.717H531.501V355.592H534.744V266.717Z" fill="#183658"/>
<path d="M542.448 267.766H370.471C369.682 267.766 369.042 267.126 369.042 266.336V263.529C369.042 262.74 369.682 262.1 370.471 262.1H542.448C543.237 262.1 543.876 262.74 543.876 263.529V266.336C543.876 267.126 543.237 267.766 542.448 267.766Z" fill="#FEE4CB"/>
<path d="M502.224 202.669C502.224 202.669 505.179 192.077 499.445 187.791C493.711 183.504 487.425 183.657 483.051 185.861C478.677 188.064 475.752 196.323 477.453 201.199L491.821 197.29L502.224 202.669Z" fill="#07085B"/>
<path d="M480.282 202.559C480.81 203.931 480.35 205.386 479.256 205.809C478.162 206.232 476.847 205.463 476.32 204.091C475.793 202.72 476.252 201.265 477.347 200.842C478.441 200.419 479.755 201.188 480.282 202.559Z" fill="#F99893"/>
<path d="M480.521 210.53C480.194 209.936 479.92 209.308 479.704 208.652C479.087 206.889 478.795 205.023 478.668 203.399C478.642 203.05 478.594 202.704 478.541 202.359C478.324 200.964 478.357 199.49 478.712 197.98C479.852 193.123 484.12 189.529 489.088 189.255C495.781 188.886 501.206 194.282 501.081 200.824C501.798 200.443 502.596 200.366 503.292 200.694C504.626 201.323 505.072 203.187 504.289 204.86C503.505 206.532 501.789 207.378 500.455 206.749C500.27 206.662 500.104 206.549 499.953 206.418C499.282 211.974 494.652 216.183 489.2 215.989C486.533 215.893 484.138 214.76 482.353 212.975C482.234 212.87 482.108 212.748 481.977 212.607C481.4 211.985 480.922 211.281 480.521 210.53Z" fill="#FFC0BB"/>
<path d="M487.205 200.447C487.13 201.095 487.073 201.728 486.988 202.346C486.898 202.95 486.779 203.593 486.501 204.001L486.447 204.065C486.426 204.09 486.421 204.103 486.38 204.146C486.315 204.222 486.24 204.285 486.189 204.376C486.076 204.544 485.992 204.745 485.971 204.957C485.921 205.385 486.115 205.788 486.378 206.047C486.915 206.582 487.659 206.69 488.291 206.588C487.668 206.424 487.081 206.156 486.762 205.713C486.616 205.494 486.527 205.255 486.582 205.043C486.603 204.937 486.647 204.836 486.718 204.744C486.743 204.694 486.798 204.655 486.834 204.609L486.924 204.508L487.025 204.39C487.256 204.06 487.349 203.715 487.416 203.379C487.476 203.041 487.498 202.71 487.494 202.379C487.485 201.721 487.399 201.072 487.205 200.447Z" fill="#F99893"/>
<path d="M490.883 201.615C490.864 202.163 491.291 202.623 491.837 202.643C492.384 202.662 492.842 202.234 492.862 201.686C492.881 201.138 492.454 200.678 491.908 200.659C491.362 200.639 490.903 201.068 490.883 201.615Z" fill="#333333"/>
<path d="M482.369 201.87C482.349 202.418 482.776 202.878 483.323 202.898C483.869 202.917 484.328 202.489 484.347 201.941C484.366 201.393 483.939 200.933 483.393 200.914C482.847 200.894 482.388 201.322 482.369 201.87Z" fill="#333333"/>
<path d="M489.829 199.279C490.344 199.165 490.826 199.085 491.3 199.051C491.773 199.018 492.231 199.043 492.673 199.134C493.111 199.231 493.549 199.363 493.962 199.594C494.183 199.684 494.371 199.836 494.593 199.951C494.806 200.08 495 200.238 495.239 200.368C495.134 200.128 495.008 199.892 494.856 199.672C494.685 199.47 494.524 199.245 494.304 199.084C493.897 198.717 493.368 198.482 492.824 198.368C492.276 198.255 491.704 198.289 491.185 198.45C490.669 198.614 490.186 198.882 489.829 199.279Z" fill="#07085B"/>
<path d="M485.443 199.41C485.074 199.024 484.583 198.771 484.062 198.623C483.539 198.479 482.966 198.462 482.422 198.591C481.882 198.722 481.36 198.974 480.964 199.353C480.749 199.521 480.595 199.751 480.431 199.958C480.285 200.182 480.166 200.422 480.068 200.665C480.304 200.528 480.493 200.364 480.702 200.228C480.921 200.106 481.103 199.949 481.322 199.852C481.727 199.609 482.161 199.463 482.596 199.353C483.035 199.248 483.492 199.209 483.966 199.228C484.44 199.247 484.924 199.312 485.443 199.41Z" fill="#07085B"/>
<path d="M500.911 200.971C501.586 200.435 502.083 200.498 502.083 200.498L501.938 197.024L500.956 194.892C500.956 194.892 496.997 189.098 496.855 188.952C496.714 188.806 493.586 186.852 493.392 186.75C493.199 186.649 488.678 187.133 488.678 187.133C488.678 187.133 480.848 185.17 482.002 189.371C483.155 193.572 488.83 195.995 489.134 195.823C488.237 194.854 488.255 192.213 488.255 192.213C492.148 196.832 499.729 200.428 500.911 200.971Z" fill="#07085B"/>
<path d="M484.421 207.87C484.596 209.122 485.709 210.133 487.118 210.225C488.528 210.318 489.761 209.46 490.094 208.242L484.421 207.87Z" fill="white"/>
<path opacity="0.5" d="M542.447 267.766H494.926C494.137 267.766 493.497 267.126 493.497 266.336V263.529C493.497 262.74 494.137 262.1 494.926 262.1H542.447C543.236 262.1 543.876 262.74 543.876 263.529V266.336C543.876 267.126 543.236 267.766 542.447 267.766Z" fill="#E0A689"/>
<path d="M402.508 249.901H379.986V254.308H402.508V249.901Z" fill="#97CEF7"/>
<path d="M421.026 255.489H418.594V262.1H421.026V255.489Z" fill="#C9EAFD"/>
<path d="M953.891 360.506H31.8228C30.4914 360.506 29.4121 359.426 29.4121 358.093V358.084C29.4121 356.751 30.4914 355.671 31.8228 355.671H953.891C955.223 355.671 956.302 356.751 956.302 358.084V358.093C956.302 359.426 955.223 360.506 953.891 360.506Z" fill="#EAE4C7"/>
<path d="M578.154 266.717H574.911V355.592H578.154V266.717Z" fill="#183658"/>
<path d="M608.758 266.717H605.515V355.592H608.758V266.717Z" fill="#183658"/>
<path d="M701.326 266.717H698.082V355.592H701.326V266.717Z" fill="#183658"/>
<path d="M731.929 266.717H728.686V355.592H731.929V266.717Z" fill="#183658"/>
<path d="M739.632 267.766H567.655C566.866 267.766 566.227 267.126 566.227 266.336V263.529C566.227 262.74 566.866 262.1 567.655 262.1H739.632C740.421 262.1 741.061 262.74 741.061 263.529V266.336C741.061 267.126 740.421 267.766 739.632 267.766Z" fill="#FEE4CB"/>
<path opacity="0.5" d="M739.421 267.766H691.899C691.11 267.766 690.471 267.126 690.471 266.336V263.529C690.471 262.74 691.11 262.1 691.899 262.1H739.421C740.21 262.1 740.849 262.74 740.849 263.529V266.336C740.849 267.126 740.21 267.766 739.421 267.766Z" fill="#E0A689"/>
<path opacity="0.5" d="M936.929 267.766H889.407C888.618 267.766 887.979 267.126 887.979 266.336V263.529C887.979 262.74 888.618 262.1 889.407 262.1H936.929C937.718 262.1 938.357 262.74 938.357 263.529V266.336C938.357 267.126 937.718 267.766 936.929 267.766Z" fill="#E0A689"/>
</svg>
