<?xml version="1.0" standalone="no"?>
<!DOCTYPE svg PUBLIC "-//W3C//DTD SVG 20010904//EN"
 "http://www.w3.org/TR/2001/REC-SVG-20010904/DTD/svg10.dtd">
<svg version="1.0" xmlns="http://www.w3.org/2000/svg"
 width="706.000000pt" height="490.000000pt" viewBox="0 0 706.000000 490.000000"
 preserveAspectRatio="xMidYMid meet">
<metadata>
Created by potrace 1.16, written by Peter Selinger 2001-2019
</metadata>
<g transform="translate(0.000000,490.000000) scale(0.100000,-0.100000)"
fill="#000000" stroke="none">
<path d="M0 2450 l0 -2450 3530 0 3530 0 0 2450 0 2450 -3530 0 -3530 0 0
-2450z m4035 1535 l0 -570 -130 0 -130 0 -6 38 c-7 44 -4 46 111 49 l75 3 0
480 0 480 -605 0 -605 0 -3 -482 -2 -482 92 -3 93 -3 0 -40 0 -40 -130 0 -130
0 -3 560 c-1 308 0 566 3 573 3 10 146 12 687 10 l683 -3 0 -570z m-1115 400
c0 -11 -84 -85 -93 -82 -5 1 10 22 34 45 40 39 59 50 59 37z m150 -19 c0 -12
-214 -218 -217 -209 -5 13 187 211 205 212 6 1 12 -1 12 -3z m352 -105 c67
-29 104 -78 122 -163 3 -15 -3 -56 -15 -93 -16 -53 -31 -78 -68 -115 -73 -73
-138 -76 -215 -9 -55 48 -86 119 -87 196 -1 72 10 102 54 145 57 57 134 72
209 39z m-23 -477 l31 -7 -2 -181 -3 -181 -77 -3 -78 -3 0 185 c0 167 2 185
18 189 27 7 77 8 111 1z m-151 -191 l-3 -178 -149 -3 -149 -3 6 56 c7 70 36
131 92 193 46 51 144 111 183 112 l22 0 -2 -177z m308 141 c105 -63 157 -131
184 -240 21 -84 22 -84 -145 -84 l-145 0 0 180 0 180 23 0 c13 0 50 -16 83
-36z m474 -384 c0 -7 -233 -10 -680 -10 -447 0 -680 3 -680 10 0 7 233 10 680
10 447 0 680 -3 680 -10z m0 -80 c0 -7 -233 -10 -679 -10 -443 0 -682 3 -686
10 -4 7 225 10 679 10 451 0 686 -3 686 -10z m-8 -73 c-1 -5 -907 -10 -1342
-7 -20 0 -22 2 -10 10 18 12 1356 9 1352 -3z m-1511 -234 c52 -31 63 -109 20
-147 -87 -79 -222 13 -167 113 27 49 94 65 147 34z m2738 -9 c26 -22 31 -33
31 -69 0 -33 -6 -50 -22 -65 -69 -64 -178 -26 -178 61 0 88 100 131 169 73z
m-1889 -1 c0 -10 -18 -121 -40 -248 -22 -126 -54 -311 -70 -410 -17 -99 -35
-190 -40 -202 -9 -21 -16 -23 -80 -23 l-70 0 0 34 c0 44 -12 52 -36 25 -50
-55 -172 -83 -258 -59 -101 28 -157 112 -164 244 -9 163 69 303 205 372 50 25
69 29 138 29 83 0 117 -12 163 -55 13 -12 25 -20 27 -18 2 2 16 71 30 153 15
83 28 156 30 163 3 8 29 12 85 12 70 0 80 -2 80 -17z m810 5 c0 -7 -20 -130
-45 -273 -25 -143 -56 -327 -71 -410 -37 -219 -26 -199 -112 -203 l-72 -3 0
28 c0 45 -13 57 -36 32 -41 -46 -93 -64 -186 -64 -80 0 -89 2 -129 30 -24 17
-57 53 -74 80 -29 47 -30 53 -30 164 1 99 4 122 22 159 74 148 201 229 340
219 61 -5 153 -45 153 -67 0 -6 4 -10 9 -10 4 0 21 74 37 165 l29 165 82 0
c60 0 83 -4 83 -12z m330 2 c0 -6 -11 -76 -25 -156 -32 -186 -32 -181 8 -151
53 41 94 57 155 63 133 14 221 -62 222 -191 0 -66 -62 -438 -75 -448 -5 -4
-44 -6 -85 -5 -60 2 -75 6 -73 18 1 8 16 96 33 195 17 99 29 193 25 210 -10
51 -41 75 -99 75 -59 0 -101 -22 -139 -72 -30 -39 -38 -70 -67 -248 -30 -190
-24 -180 -114 -180 -41 0 -77 4 -80 9 -6 8 -4 21 39 261 38 210 105 608 105
620 0 6 35 10 85 10 52 0 85 -4 85 -10z m-2469 -15 c87 -31 139 -98 139 -181
l0 -54 -90 0 c-84 0 -90 1 -90 21 0 31 -17 57 -50 74 -100 52 -226 -47 -173
-135 13 -24 43 -40 138 -80 70 -30 135 -64 154 -82 127 -118 77 -324 -100
-414 -72 -36 -228 -46 -309 -19 -101 34 -165 121 -158 216 l3 44 84 0 84 0 11
-44 c13 -54 47 -81 109 -88 83 -10 152 39 158 112 5 66 -22 91 -162 146 -80
31 -123 55 -150 81 -121 119 -43 335 144 399 66 23 197 25 258 4z m465 -250
c6 -14 -58 -411 -94 -580 l-8 -40 -82 -3 c-62 -2 -82 0 -82 10 0 7 16 101 35
208 19 107 42 240 51 295 9 55 21 106 27 113 14 18 146 16 153 -3z m2729 5 c7
-11 -51 -359 -96 -577 l-10 -53 -80 0 c-95 0 -90 -16 -53 190 14 80 36 210 50
290 14 79 31 148 37 152 17 11 145 10 152 -2z m-3295 -898 c0 -10 -20 -128
-44 -262 -24 -135 -58 -325 -75 -424 -17 -98 -34 -183 -37 -187 -7 -12 -151
-11 -159 1 -3 5 10 96 29 202 18 106 36 209 39 228 3 19 19 109 35 200 17 91
33 186 37 213 l6 47 85 0 c74 0 84 -2 84 -18z m-565 -7 c122 -37 205 -141 205
-257 l0 -29 -92 3 -92 3 -6 30 c-17 79 -65 110 -170 110 -64 -1 -82 -5 -122
-29 -115 -67 -172 -181 -173 -341 0 -112 22 -160 91 -201 40 -24 53 -26 117
-22 99 6 171 49 198 116 8 21 14 22 99 22 108 0 111 -6 49 -98 -48 -73 -94
-111 -186 -155 -60 -28 -80 -32 -170 -35 -164 -6 -266 39 -327 143 -119 202
-19 553 193 684 108 66 273 90 386 56z m1052 -238 c110 -23 166 -88 165 -192
0 -27 -10 -104 -22 -170 -12 -66 -27 -154 -34 -195 l-12 -75 -74 0 -75 0 -5
39 -5 38 -20 -22 c-35 -39 -113 -70 -180 -70 -84 0 -129 15 -163 55 -36 40
-46 81 -37 140 9 66 42 105 119 145 66 33 75 35 200 40 l131 5 3 29 c6 50 -6
76 -44 92 -58 24 -145 0 -178 -50 -15 -24 -22 -26 -87 -26 -84 0 -92 11 -55
74 45 77 126 129 225 146 67 11 80 11 148 -3z m741 -19 c55 -26 94 -77 96
-126 l1 -37 -73 -3 c-70 -3 -73 -2 -98 28 -23 26 -32 30 -78 30 -61 0 -96 -20
-96 -55 0 -32 29 -50 115 -71 98 -24 167 -58 188 -93 23 -40 22 -121 -3 -170
-23 -47 -79 -92 -142 -116 -37 -14 -68 -17 -145 -13 -85 3 -105 7 -145 31 -61
35 -90 78 -96 139 l-5 49 84 -3 c79 -3 83 -4 89 -27 20 -88 198 -85 208 3 4
36 -9 50 -60 66 -196 58 -200 61 -237 121 -64 105 38 246 194 269 71 10 153 1
203 -22z m670 -1 c51 -23 90 -76 94 -127 l3 -35 -73 -3 c-70 -3 -74 -2 -102
28 -24 25 -35 30 -77 30 -57 0 -93 -21 -93 -55 0 -29 28 -49 90 -65 168 -42
219 -76 227 -152 16 -136 -93 -238 -261 -246 -103 -5 -172 10 -219 49 -45 37
-65 73 -69 125 l-3 39 84 0 85 0 8 -31 c12 -46 76 -71 140 -54 35 10 68 45 68
74 0 23 -46 53 -103 66 -97 23 -155 50 -187 87 -30 33 -32 41 -28 94 5 75 39
125 107 163 91 49 220 55 309 13z m692 6 c53 -21 107 -80 126 -136 15 -45 18
-187 4 -201 -3 -2 -104 -6 -225 -7 -123 -1 -225 -6 -232 -11 -30 -24 12 -104
71 -135 38 -20 107 -3 158 38 35 27 44 30 108 28 39 -1 73 -6 76 -11 7 -11
-38 -73 -81 -110 -63 -57 -124 -82 -211 -86 -130 -7 -198 24 -260 118 -27 41
-29 50 -29 149 1 100 2 110 34 170 39 76 109 149 171 179 87 41 210 48 290 15z
m689 1 c66 -28 111 -88 111 -149 0 -24 -2 -25 -73 -25 -68 0 -74 2 -99 30 -23
27 -33 30 -82 30 -43 0 -61 -5 -76 -20 -43 -43 -14 -80 77 -100 149 -33 204
-66 223 -134 25 -89 -25 -182 -124 -234 -47 -25 -60 -27 -166 -27 -107 0 -118
2 -162 27 -57 34 -91 87 -92 142 l-1 41 76 3 77 3 18 -38 c44 -90 211 -73 202
20 -4 37 -18 46 -143 82 -103 30 -149 66 -166 127 -36 134 118 258 300 243 35
-3 80 -13 100 -21z m677 -4 c51 -22 94 -77 101 -130 l6 -40 -82 0 c-69 0 -83
3 -88 18 -11 30 -36 41 -88 42 -60 0 -95 -21 -95 -55 0 -32 29 -50 113 -69
160 -37 207 -79 207 -182 0 -51 -5 -65 -34 -104 -19 -26 -55 -57 -87 -75 -51
-28 -60 -30 -169 -30 -107 0 -118 2 -162 28 -61 36 -90 77 -96 139 l-5 49 84
-3 c79 -3 83 -4 89 -27 21 -90 199 -84 208 7 4 40 -18 54 -128 82 -88 22 -122
38 -154 74 -43 49 -47 108 -10 175 30 57 108 108 181 121 64 11 159 2 209 -20z"/>
<path d="M3345 4190 c-9 -10 -51 -36 -91 -57 -41 -21 -76 -44 -79 -50 -2 -7 5
-42 15 -77 40 -127 148 -185 234 -123 31 22 86 102 86 125 0 7 -24 37 -54 65
-33 31 -57 64 -61 82 -14 64 -20 68 -50 35z"/>
<path d="M3320 3710 c0 -5 14 -10 30 -10 17 0 30 5 30 10 0 6 -13 10 -30 10
-16 0 -30 -4 -30 -10z"/>
<path d="M3327 3644 c-15 -15 -6 -24 24 -24 20 0 29 4 27 13 -5 14 -40 21 -51
11z"/>
<path d="M3320 3555 c0 -11 8 -15 27 -12 39 5 42 27 4 27 -21 0 -31 -5 -31
-15z"/>
<path d="M3320 3480 c0 -5 14 -10 30 -10 17 0 30 5 30 10 0 6 -13 10 -30 10
-16 0 -30 -4 -30 -10z"/>
<path d="M2893 2554 c-41 -20 -82 -61 -95 -94 -55 -135 -8 -250 102 -250 64 0
93 12 138 58 58 60 80 167 47 232 -32 62 -123 88 -192 54z"/>
<path d="M3694 2551 c-80 -37 -134 -166 -104 -255 28 -85 127 -113 216 -61
119 70 139 265 34 317 -45 23 -94 22 -146 -1z"/>
<path d="M2177 1164 c-25 -13 -47 -49 -47 -75 0 -5 9 -18 20 -29 36 -36 120
-23 173 28 26 24 57 72 57 87 0 13 -176 4 -203 -11z"/>
<path d="M4315 1412 c-39 -18 -105 -83 -105 -102 0 -6 58 -10 145 -10 117 0
145 3 145 14 0 26 -30 85 -49 95 -38 21 -95 22 -136 3z"/>
</g>
</svg>
